<svg width="317" height="317" viewBox="0 0 317 317" fill="none" xmlns="http://www.w3.org/2000/svg">
<path d="M0 158.5C0 70.9629 70.9629 0 158.5 0C246.037 0 317 70.9629 317 158.5C317 246.037 246.037 317 158.5 317C70.9629 317 0 246.037 0 158.5Z" fill="#6FDE6D"/>
<path d="M196.101 251.768L206.458 251.784C206.202 255.27 205.67 259.011 205.867 262.496L201.642 262.482C200.583 262.454 199.22 262.225 198.194 262.463C198.268 261.26 197.729 259.609 197.508 258.415L196.778 254.154C196.625 253.347 196.514 252.487 196.101 251.768Z" fill="#EBEBF5"/>
<path d="M84.5431 259.491C85.5309 259.539 86.3378 259.635 87.0194 260.441C87.3608 260.845 87.5292 261.405 87.7011 261.898L96.5762 261.984C97.0449 262.478 97.4274 267.1 97.5475 268.044C97.6142 268.827 97.8381 269.894 97.71 270.655L72.3562 270.622C71.9734 270.606 71.5154 270.655 71.1955 270.42L71.4494 269.579C72.6504 268.137 74.1178 267.435 75.8082 266.722C76.8361 267 77.9168 267.269 78.6924 268.04L78.7998 268.152L79.0366 267.999L79.0837 267.222C78.8847 266.946 78.8011 266.784 78.7485 266.446L78.8984 266.261C79.2539 266.482 79.5492 266.591 79.7498 266.964C79.551 267.017 79.5148 266.998 79.3722 267.158L79.61 267.351L80.0267 267.25L80.1892 266.964C80.0189 266.411 79.249 266.012 78.851 265.587L78.769 265.494C78.3852 265.756 78.5914 266.172 78.3174 266.576C77.8516 266.447 77.4931 266.212 77.164 265.864C77.4706 265.568 77.5894 265.777 77.9639 265.596L78.0022 265.152C78.2222 265.001 78.3764 264.898 78.6396 264.843L78.9631 265.098L79.1587 265.023C79.0707 264.74 79.0231 264.699 79.0925 264.399C79.6577 264.236 79.616 263.909 79.9982 263.622C80.1374 263.518 80.4659 263.497 80.5805 263.382C80.8287 263.134 80.7945 262.966 81.227 262.853C81.5507 262.769 81.8041 262.738 82.0802 262.921C81.8584 263.497 81.3517 263.269 80.904 263.549C80.8087 263.609 80.6198 263.976 80.5655 264.072L80.4682 264.246L79.934 264.344L79.9516 264.505C80.2094 264.6 80.4669 264.7 80.7353 264.759C81.4084 264.909 81.618 264.988 82.0553 265.544C82.2013 265.731 82.0936 265.656 82.3713 265.721C82.4132 265.508 82.4751 265.448 82.3506 265.247C82.0701 264.795 81.5812 264.59 81.0934 264.438C80.8856 264.374 80.9943 264.446 80.8416 264.182C81.1405 263.803 81.487 263.702 81.9288 263.535L83.1862 265.047L83.4254 264.893C83.3884 264.159 82.4277 263.976 82.2709 263.276L82.4567 263.063C83.3097 263.2 83.724 263.758 84.3976 264.229L84.6031 263.923L84.4323 263.706C84.0056 263.273 83.0504 262.685 82.443 262.681L82.2626 262.695C82.0778 262.555 81.9922 262.515 81.7549 262.473L81.551 262.446V262.316C82.0266 262.216 82.3527 262.235 82.8273 262.345L82.9743 262.381L83.2002 262.241C82.7781 261.916 82.3242 262.2 81.9661 261.853C82.3281 261.481 82.678 261.688 83.1857 261.659C82.854 261.496 82.524 261.371 82.2869 261.076C82.3656 260.903 82.4407 260.728 82.5496 260.571C83.0411 259.864 83.7473 259.677 84.5431 259.491Z" fill="black"/>
<path d="M137.645 259.75C139.023 259.773 139.947 260.333 140.906 261.287L141.013 261.4L140.818 261.46C140.558 261.554 140.43 261.662 140.231 261.845L140.02 261.837C139.751 261.834 139.611 261.838 139.417 262.038C139.175 262.289 138.96 262.464 138.9 262.823L139.067 263.025L139.422 262.977L139.52 262.497L139.734 262.407C139.971 262.306 140.176 262.181 140.395 262.047C140.703 261.859 140.879 261.793 141.236 261.768L141.431 261.917C141.236 262.162 141.169 262.181 140.9 262.321C140.566 262.495 140.471 262.593 140.244 262.888C140.055 263.132 139.852 263.34 139.678 263.599L139.78 263.858L139.965 263.9L140.143 263.762C140.654 263.378 141.798 262.714 142.431 262.611L143.022 263.082C142.927 263.36 142.936 263.372 142.69 263.526L142.598 263.405L142.71 263.082L142.56 262.959L142.302 263.211C142.336 263.391 142.358 263.501 142.445 263.664L142.302 263.84L142.167 263.697C142.037 263.563 141.939 263.479 141.784 263.383C141.438 263.532 141.26 263.643 140.994 263.923C140.971 264.349 140.96 264.363 141.202 264.712L141.413 264.57L141.461 263.961L141.719 263.792L141.824 263.928L141.651 264.246L141.849 264.297C142.056 264.123 142.236 263.894 142.499 263.864C142.86 263.824 143.208 263.527 143.531 263.363L143.919 263.657L143.935 263.873C143.33 264.322 142.085 264.498 141.726 265.152L141.944 265.44L142.278 265.445C142.673 264.588 143.696 264.66 144.307 264.034C144.567 264.167 144.753 264.339 144.971 264.53C144.345 264.733 143.438 264.902 143.064 265.476C143.045 265.977 143.029 265.973 143.337 266.364L143.59 266.363C143.653 266.054 143.601 265.961 143.502 265.67C144.071 265.13 144.62 264.984 145.355 264.794L146.191 265.434L149.72 267.853C150.441 268.314 151.282 268.897 152.115 269.116C152.122 269.641 152.176 270.206 152.044 270.716C151.28 270.984 150.103 270.747 149.273 270.811L125.47 270.774L125.543 268.084L125.994 262.084L128.475 262.012L135.916 262.084C135.952 261.7 135.975 261.244 136.11 260.882C136.325 260.306 136.978 259.978 137.518 259.792L137.645 259.75Z" fill="black"/>
<path d="M200.31 74.0235C200.087 72.9141 200.08 71.7133 200.174 70.5883C200.471 67.0468 201.981 63.9196 204.737 61.6218C208.087 58.8287 212.182 58.7192 216.34 59.1061C219.173 59.3698 221.94 60.7652 223.729 62.996C226.036 65.8732 225.74 69.9204 225.33 73.3406L225.05 74.1058C224.862 73.944 224.907 74.0414 224.878 73.863C224.701 72.7679 224.157 71.2143 223.178 70.5759C222.523 70.1494 221.601 69.9551 220.874 69.6577C218.866 68.8361 217.035 67.0885 215.877 65.2829C215.471 64.6504 215.154 63.96 214.831 63.2827C214.701 63.0105 214.565 62.5837 214.348 62.3858C214.02 64.8168 212.941 66.9663 210.959 68.4813C209.894 69.2954 208.527 69.836 207.251 70.2141C206.273 70.504 205.292 70.7345 204.29 70.9227C204.079 70.962 203.344 71.0252 203.236 71.1157C203.232 71.1191 203.109 71.3815 203.092 71.4177C202.782 72.0815 202.566 72.7539 202.356 73.4544C202.345 73.4919 202.358 73.5507 202.322 73.5665C202.257 73.5957 202.179 73.5652 202.107 73.5652C201.546 73.5636 201.159 73.5706 200.652 73.8395L200.444 73.9466L200.31 74.0235Z" fill="black"/>
<path d="M99.4638 63.2366C99.4071 62.6272 99.1225 61.9662 99.019 61.3397C98.6766 59.2645 98.4357 57.1346 98.4708 55.0291C98.4939 53.648 98.5537 51.8046 99.4074 50.6597C100.786 48.8105 106.569 47.8502 108.763 47.218C110.141 46.8208 111.501 46.347 112.786 45.7054C114.193 45.0028 115.276 44.0845 116.405 43L116.561 43.0442C117.247 44.109 117.095 45.5739 117.086 46.7948L117.168 46.7883C117.884 45.8949 118.405 44.9553 118.94 43.9493C119.215 44.5113 119.476 45.0961 119.654 45.6974L120.171 47.8072C120.199 47.9276 120.267 48.4545 120.334 48.5355C120.463 48.694 121.13 48.9104 121.345 49.0109C121.76 49.2037 122.093 49.4979 122.376 49.8548C124.398 52.404 123.473 59.6276 123.047 62.7162L122.763 62.9794C122.344 62.3376 122.295 61.1423 122.048 60.3636C121.303 58.0236 120.472 55.5291 119.471 53.2893C117.749 54.6723 116.065 55.7157 113.835 55.9967L113.587 56.0299C111.04 56.3384 107.976 55.3925 105.686 54.3211C104.773 53.8938 103.917 53.3508 102.975 52.9878C101.888 54.5983 101.466 56.4465 101.014 58.315L99.7143 63.2886L99.4638 63.2366Z" fill="black"/>
<path d="M228.284 75.5964L228.481 75.4805C230.12 76.048 231.388 76.8567 232.141 78.4876C232.84 80 232.719 81.5801 232.106 83.0933L231.534 84.3062C232.461 84.3249 233.329 84.3383 234.236 84.5453L234.464 84.5945C236.751 85.1051 238.974 86.5062 240.246 88.4932C241.424 90.3324 241.549 92.6232 241.058 94.7046C240.575 96.7491 239.128 99.3652 237.576 100.772L233.952 98.4226C232.527 97.372 230.894 96.7056 229.256 96.0651C228.481 95.8511 227.571 95.32 226.837 94.9619C223.407 93.2883 220.617 91.4721 218.377 88.3371L217.907 87.3956L219.542 86.5952C222.894 84.6478 224.354 81.7512 225.318 78.1144L225.448 78.1411C226.189 78.2751 226.684 78.331 227.321 77.8624C228.052 77.3238 228.192 76.4354 228.284 75.5964Z" fill="black"/>
<path d="M186.976 103.46C185.562 101.985 184.26 99.8732 183.771 97.8686C183.145 95.2996 183.628 92.9159 185.023 90.6983C187.463 86.8198 191.134 85.1582 195.431 84.16L194.95 83.7074C193.994 82.7519 193.52 81.4282 193.54 80.0877C193.558 78.9493 194.125 77.7415 194.953 76.9665C196.243 75.7587 197.637 75.7463 199.29 75.7866C199.463 76.665 199.66 77.4046 200.465 77.9255C200.93 78.227 201.452 78.3352 202 78.2257L202.104 78.196C202.429 78.9112 202.537 79.7601 202.814 80.508C203.943 83.5472 205.854 85.4705 208.582 87.1198L208.264 87.84C206.195 92.2076 202.676 94.4521 198.282 96.1958C196.581 96.8461 194.907 97.5557 193.37 98.5453C191.01 99.9239 189.022 101.665 186.976 103.46Z" fill="black"/>
<path d="M200.31 74.0235L200.444 73.9466L200.652 73.8395C201.159 73.5706 201.546 73.5636 202.107 73.5652C202.178 73.5652 202.257 73.5957 202.322 73.5665C202.358 73.5507 202.345 73.492 202.356 73.4544C202.566 72.7539 202.782 72.0815 203.092 71.4178C203.109 71.3815 203.232 71.1191 203.236 71.1158C203.344 71.0252 204.079 70.962 204.29 70.9227C205.292 70.7346 206.273 70.504 207.251 70.2141C208.527 69.836 209.894 69.2954 210.959 68.4813C212.941 66.9663 214.02 64.8168 214.348 62.3858C214.565 62.5837 214.701 63.0105 214.831 63.2827C215.154 63.96 215.471 64.6504 215.877 65.2829C217.035 67.0885 218.866 68.8361 220.874 69.6577C221.601 69.9551 222.523 70.1494 223.178 70.5759C224.157 71.2143 224.701 72.7679 224.878 73.8631C224.907 74.0414 224.862 73.9441 225.049 74.1058L225.329 73.3406C226.054 73.295 226.799 73.2037 227.379 73.7482C227.871 74.2109 228.2 74.9308 228.284 75.5964C228.192 76.4354 228.052 77.3238 227.321 77.8624C226.684 78.331 226.189 78.2751 225.448 78.1411L225.318 78.1144C224.354 81.7512 222.894 84.6478 219.542 86.5952L217.907 87.3956L217.355 87.5941C214.361 88.6272 211.432 88.5136 208.582 87.1198C205.854 85.4705 203.943 83.5472 202.814 80.508C202.537 79.7601 202.429 78.9113 202.104 78.196L202 78.2257C201.452 78.3352 200.93 78.227 200.465 77.9255C199.66 77.4046 199.463 76.665 199.29 75.7866C199.532 75.0191 199.751 74.6275 200.31 74.0235Z" fill="white"/>
<path d="M225.513 74.9422L226.02 74.892C226.345 75.1464 226.364 75.1228 226.431 75.5245L226.124 75.848C225.704 75.9202 225.647 75.9991 225.285 75.7463C225.246 75.3063 225.262 75.3099 225.513 74.9422Z" fill="black"/>
<path d="M217.43 71.7073C218.175 71.5678 219.081 71.5355 219.822 71.7322C220.253 71.8468 220.64 71.9718 220.872 72.3543L220.705 72.7425H220.388C219.34 72.162 218.404 72.2813 217.286 72.4614L217.027 72.1607L217.071 71.8872L217.43 71.7073Z" fill="black"/>
<path d="M207.853 71.6667C208.718 71.6142 209.781 71.5006 210.557 71.9366C210.654 72.2348 210.636 72.2808 210.557 72.5877L210.299 72.6861L209.024 72.2663C208.176 72.3463 207.478 72.4878 206.701 72.8494L206.546 72.9226L206.351 72.7425L206.417 72.3106C206.806 71.9987 207.187 71.8789 207.654 71.7299L207.853 71.6667Z" fill="black"/>
<path d="M208.356 74.0364C208.62 73.9552 208.922 73.9161 209.199 73.9655C209.533 74.0253 209.743 74.1723 209.936 74.4412C210.17 74.7673 210.204 75.1011 210.138 75.4862C210.05 76.0012 209.813 76.2845 209.393 76.5677L208.875 76.6771C208.541 76.6065 208.278 76.5301 208.027 76.2848C207.757 76.0208 207.536 75.6218 207.579 75.2313C207.638 74.6868 207.947 74.3584 208.356 74.0364Z" fill="black"/>
<path d="M219.328 73.7777C219.597 73.7192 219.534 73.715 219.815 73.7269C220.178 73.7425 220.617 74.0082 220.815 74.3126C220.999 74.5962 221.027 75.1477 220.944 75.473C220.81 75.9965 220.588 76.203 220.132 76.4652C219.955 76.5384 219.844 76.5589 219.646 76.5286C219.21 76.4626 218.919 76.2129 218.691 75.8529C218.438 75.4523 218.408 75.0035 218.553 74.554C218.687 74.1415 218.969 73.9795 219.328 73.7777Z" fill="black"/>
<path d="M99.4638 63.2366L99.7143 63.2887L101.014 58.315C101.466 56.4465 101.888 54.5983 102.975 52.9878C103.917 53.3508 104.773 53.8938 105.686 54.3211C107.976 55.3925 111.04 56.3384 113.587 56.0299L113.835 55.9968C116.065 55.7157 117.749 54.6723 119.471 53.2894C120.472 55.5291 121.303 58.0236 122.048 60.3636C122.295 61.1423 122.344 62.3376 122.763 62.9794L123.047 62.7162C123.648 62.4548 124.142 62.2193 124.794 62.4546C125.501 62.71 126.189 63.2662 126.471 63.9763C126.823 64.8613 126.755 65.8276 126.327 66.6752C126.025 67.274 125.551 67.7109 124.898 67.893C124.454 68.0173 123.97 68.0351 123.511 68.0558L123.497 68.1888C123.212 70.6507 122.555 73.3566 121.4 75.563C121.174 75.9957 120.86 76.6367 120.51 76.9706C119.834 77.6463 119.158 78.3525 118.378 78.9081C116.288 80.3962 113.762 80.9616 111.227 80.9528C108.586 80.9435 106.077 80.2282 103.843 78.8173C103.256 78.4465 102.747 77.9752 102.186 77.571C99.9084 74.8516 99.0881 71.1825 98.4882 67.7851C97.8221 67.9124 96.9707 68.0783 96.3379 67.7435C95.701 67.4063 95.2034 66.8064 94.9855 66.119C94.7531 65.3849 94.7709 64.5244 95.1516 63.8394C95.4798 63.2488 96.0261 62.754 96.6821 62.5672C97.6782 62.2833 98.6178 62.7752 99.4638 63.2366Z" fill="white"/>
<path d="M123.732 64.4612L124.122 64.3927C124.463 64.6145 124.507 64.6807 124.697 65.0435C124.635 65.4736 124.418 65.6455 124.122 65.9317C123.83 66.0445 123.95 66.0261 123.639 66.0344C123.329 66.0427 123.345 65.9596 123.135 65.7552C123.114 65.6061 123.094 65.5272 123.111 65.367C123.157 64.9276 123.431 64.7281 123.732 64.4612Z" fill="black"/>
<path d="M97.3938 64.4612C97.6316 64.417 97.7175 64.4336 97.9471 64.4838C98.2656 64.7622 98.3756 64.9045 98.5192 65.3023C98.4483 65.6931 98.4165 65.7244 98.1404 66.014L97.5959 66.0776C97.2369 65.8892 97.2074 65.8494 97.0045 65.4964C97.0302 64.9297 96.9872 64.8996 97.3938 64.4612Z" fill="black"/>
<path d="M116.785 63.0379L117.137 62.9437C117.529 63.0555 117.809 63.2698 118.022 63.6336C118.28 64.0736 118.288 64.6802 118.13 65.1538C117.977 65.6144 117.681 65.801 117.271 66.014L117.198 66.015C116.828 66.001 116.521 65.9547 116.265 65.6605C115.91 65.2521 115.835 64.7539 115.917 64.2319C116.006 63.6737 116.332 63.3365 116.785 63.0379Z" fill="black"/>
<path d="M115.617 60.0096C116.858 60.0365 118.184 59.9705 119.187 60.8612C119.255 61.1989 119.27 61.2083 119.115 61.5126L117.546 61.2114C116.559 61.0747 115.709 61.3617 114.741 61.4368C114.293 61.4715 114.164 61.2999 113.842 61.0323L113.848 60.781C114.405 60.4055 114.987 60.2189 115.617 60.0096Z" fill="black"/>
<path d="M104.755 59.8975C105.444 59.8607 106.55 59.8199 107.171 60.1723C107.473 60.3434 107.643 60.5181 107.745 60.8382C107.067 61.2274 105.531 61.053 104.709 61.0677C104.014 61.1811 103.431 61.5807 102.772 61.812L102.513 61.6397C102.358 61.2709 102.323 61.2748 102.453 60.9029C103.108 60.3046 103.907 60.0688 104.755 59.8975Z" fill="black"/>
<path d="M104.868 62.9085C105.097 62.8614 105.29 62.8775 105.522 62.8878C105.839 63.0848 106.098 63.2566 106.294 63.5827C106.518 63.9538 106.616 64.4167 106.509 64.8396C106.38 65.3466 106.182 65.5531 105.748 65.8264C105.559 65.8859 105.362 65.8988 105.165 65.9244C104.865 65.7899 104.574 65.6703 104.377 65.3882C104.101 64.9907 104.053 64.4688 104.134 64.0035C104.229 63.4522 104.435 63.2263 104.868 62.9085Z" fill="black"/>
<path d="M81.2205 212.569C82.34 213.151 83.7426 213.338 84.9799 213.494C88.9373 213.994 93.1297 213.928 97.0811 213.396C99.3626 213.089 101.562 212.553 103.807 212.071L103.933 212.398L98.7345 248.603L97.1339 257.971L96.6748 260.558C96.5949 261.026 96.4569 261.515 96.5762 261.984L87.7011 261.898C87.5292 261.405 87.3608 260.845 87.0194 260.441C86.3378 259.635 85.5309 259.539 84.5431 259.491L81.2205 212.569Z" fill="white"/>
<path d="M117.954 211.613C120.179 212.216 122.372 212.82 124.655 213.166C130.254 214.014 136.049 213.808 141.558 212.545L138.428 252.052L137.95 258.1C137.919 258.468 137.961 259.233 137.836 259.534C137.798 259.622 137.708 259.678 137.645 259.75L137.518 259.792C136.978 259.978 136.325 260.306 136.11 260.882C135.975 261.244 135.952 261.7 135.916 262.084L128.475 262.012L125.979 262.001L117.954 211.613Z" fill="white"/>
<path d="M145.4 133.712L142.823 117.281C147.76 115.235 152.481 112.18 156.523 108.682C157.547 110.974 158.611 113.276 159.443 115.646C164.801 130.925 165.127 147.01 162.784 162.906C162.492 164.888 162.153 166.872 161.687 168.821C161.519 169.521 161.136 170.239 161.03 170.931C160.935 171.543 161.06 172.35 161.079 172.981C161.146 175.162 161.091 177.446 160.295 179.507C159.842 180.682 159.014 181.906 157.844 182.447C157 182.837 155.823 183.053 154.931 182.72C154.427 182.531 154.001 182.148 153.796 181.647C153.508 180.943 153.349 179.787 153.525 179.039L153.254 179.006C152.895 178.73 152.68 178.472 152.461 178.072C151.964 177.16 152.105 176.165 152.382 175.207C151.887 175.176 151.287 175.09 150.963 174.663C150.601 174.187 150.619 173.718 150.719 173.16C151.042 171.358 152.543 170.028 153.957 169.024C153.989 168.295 153.8 167.532 153.689 166.812L153.039 162.98C151.221 153.117 149.044 143.077 145.4 133.712Z" fill="white"/>
<path d="M152.382 175.207C153.039 174.489 153.764 173.286 154.594 172.829C154.966 173.141 155.171 173.931 155.225 174.42C155.381 175.818 155.17 177.179 154.26 178.292L153.525 179.039L153.254 179.006C152.895 178.73 152.68 178.472 152.461 178.072C151.964 177.16 152.105 176.165 152.382 175.207Z" fill="black"/>
<path d="M65.4613 108.714C68.1219 111.036 70.9313 112.975 73.8696 114.923C75.4769 115.988 77.1963 117.213 79.0052 117.895L75.9194 136.577C72.7418 142.415 70.9538 149.441 69.5439 155.898C68.6237 160.112 67.7329 164.386 67.7616 168.718C69.0758 170.291 70.3286 172.333 70.0781 174.481C69.9321 175.735 69.2026 176.953 68.2932 177.803C68.051 178.44 67.7508 178.97 67.227 179.421L67.3613 179.549C67.7446 179.936 67.9627 180.435 67.9213 180.981C67.8804 181.515 67.5419 181.968 67.1462 182.308C66.6959 182.695 66.0433 182.958 65.4413 182.895C63.8236 182.722 62.5804 181.924 61.6423 180.635C59.5733 177.792 59.5195 173.639 60.1794 170.306C60.3856 169.264 59.7239 167.814 59.4804 166.758C55.8346 150.949 56.0437 133.929 61.2047 118.472C62.3113 115.158 63.6011 111.69 65.4613 108.714Z" fill="white"/>
<path d="M67.227 179.421C66.6087 178.942 66.1344 178.446 65.8557 177.701C65.4827 176.703 65.4972 175.507 65.9662 174.542C66.2482 173.961 66.5735 173.627 67.1799 173.411L67.447 173.568C67.7088 174.02 67.8962 174.421 68.0096 174.934L68.0567 175.158L68.1074 175.385C68.2756 176.184 68.2771 176.991 68.2932 177.803C68.051 178.44 67.7508 178.97 67.227 179.421Z" fill="black"/>
<path d="M236.865 126.022L237.23 125.445C238.691 123.022 239.055 119.86 238.346 117.141C237.561 114.136 235.583 111.566 232.891 110.024L232.746 109.943L233.952 98.4226L237.576 100.772C239.245 101.922 240.76 103.339 242.216 104.745C251.719 113.925 256.744 126.955 259.101 139.735C260.376 146.649 261.013 153.814 260.915 160.848L260.526 168.711C260.502 170.039 260.74 171.318 260.818 172.635C260.968 175.189 260.519 178.576 259.002 180.723C258.202 181.854 257.03 182.718 255.64 182.929C254.899 183.041 254.063 183.031 253.437 182.563C252.65 181.977 252.318 180.895 252.228 179.957C252.214 179.812 252.212 179.67 252.184 179.527C251.738 178.47 251.861 177.444 251.675 176.352L251.606 176.458L251.446 176.457C251.176 175.971 250.867 175.465 250.743 174.919C250.095 172.057 251.304 170.314 252.799 168.034C251.171 161.191 248.79 154.444 246.055 147.97C244.795 144.988 243.507 141.969 241.994 139.106L238.014 132.058C237.167 130.658 236.222 129.339 235.437 127.898C235.972 127.294 236.44 126.709 236.865 126.022Z" fill="white"/>
<path d="M251.675 176.352C251.938 175.437 252.533 173.829 253.452 173.368L253.697 173.282C254.092 173.876 254.154 176.298 253.995 177.005C253.745 178.117 253.104 178.903 252.184 179.527C251.738 178.47 251.861 177.444 251.675 176.352Z" fill="black"/>
<path d="M193.37 98.5453L193.809 106.126C193.89 107.237 194.15 108.565 194.036 109.663C191.324 111.875 189.44 114.564 189.062 118.107C188.787 120.683 189.42 123.51 190.972 125.613L190.999 125.632C191.454 126.323 191.911 126.959 192.463 127.576C192.087 129.552 191.819 131.781 190.886 133.569C191.004 133.956 191.039 134.068 190.932 134.464L186.377 149.977C184.736 153.305 183.492 156.827 182.361 160.357C181.076 164.367 179.883 168.69 179.399 172.878C179.631 173.277 179.9 173.641 179.785 174.123C179.663 174.631 179.261 175.181 178.893 175.542C178.602 175.625 178.316 175.776 178.024 175.685C177.981 176.705 177.65 177.897 176.949 178.673C176.969 179.163 176.405 180.12 176.085 180.472C175.575 181.034 174.805 181.299 174.058 181.294C173.272 181.289 172.545 181.007 171.998 180.435C169.818 178.154 169.971 174.163 170.662 171.325C170.754 170.945 171.229 169.974 171.204 169.672C171.19 169.505 170.717 168.895 170.619 168.689C170.359 168.134 170.231 167.451 170.126 166.846C169.486 163.156 169.451 159.124 169.478 155.392C169.58 141.207 172.07 126.722 179.045 114.213C181.238 110.281 183.762 106.629 186.976 103.46C189.022 101.665 191.01 99.9239 193.37 98.5453Z" fill="white"/>
<path d="M176.949 178.673C176.088 178.017 175.674 177.226 175.515 176.153C175.392 175.325 175.091 173.794 175.621 173.071L175.944 173.085C176.849 173.75 177.422 174.757 178.024 175.685C177.981 176.705 177.65 177.897 176.949 178.673Z" fill="black"/>
<path d="M190.886 133.569C191.005 133.956 191.039 134.068 190.932 134.464L186.377 149.977C184.736 153.305 183.492 156.827 182.361 160.357C181.076 164.367 179.883 168.69 179.399 172.878L178.363 171.469C177.701 170.606 176.828 169.563 175.692 169.43L175.571 169.418L175.567 169.271C175.922 169.034 176.244 168.798 176.458 168.419C176.973 167.503 177.166 166.13 177.418 165.113L178.653 160.575C179.855 156.519 181.225 152.474 182.907 148.588C184.214 145.568 185.751 142.663 187.315 139.771C188.442 137.688 189.567 135.535 190.886 133.569Z" fill="#6FDE6D"/>
<path d="M110.992 179.555L112.159 179.591L111.312 179.689C111.164 180.701 111.347 181.897 111.397 182.931L111.765 189.991L112.352 202.043C112.418 203.203 112.289 204.714 112.588 205.813L117.585 206.955L117.954 211.613L125.979 262.001L128.475 262.012L125.994 262.084L125.543 268.084L97.5475 268.044C97.4274 267.1 97.0449 262.478 96.5763 261.984C96.457 261.515 96.5949 261.026 96.6749 260.558L97.1339 257.971L98.7346 248.603L103.933 212.398L103.951 212.393L104.477 206.994L109.424 205.841L110.992 179.555Z" fill="#6FDE6D"/>
<path d="M125.47 270.774L149.273 270.811L151.968 270.886L151.895 273.081L125.521 273.148L125.47 270.774Z" fill="white"/>
<path d="M72.3562 270.622L97.71 270.655C97.5304 271.325 97.6725 272.458 97.6652 273.18L77.9463 273.037L73.1186 272.997C72.4677 272.991 71.6453 273.093 71.0304 272.918C71.0322 272.268 70.9155 271.232 71.1994 270.661L72.3562 270.622Z" fill="white"/>
<path d="M222.447 262.4C224.943 262.171 227.413 262.935 229.896 262.374C233.53 264.096 236.58 266.86 240.107 268.736C240.878 269.226 241.719 269.694 242.388 270.319C242.504 270.678 242.475 270.822 242.359 271.178C242.261 271.261 242.183 271.376 242.065 271.426C241.908 271.494 241.398 271.425 241.191 271.424L238.095 271.421L220.706 271.378L221.254 268.214L222.447 262.4Z" fill="white"/>
<path d="M226.597 263.082C226.916 263.099 227.157 263.151 227.379 263.407C227.636 263.702 227.642 264.012 227.646 264.376C227.434 264.804 227.41 264.827 226.99 265.057C226.461 265.065 226.217 265.007 225.826 264.656C225.719 264.261 225.662 264.018 225.847 263.632C226.015 263.279 226.254 263.212 226.597 263.082Z" fill="black"/>
<path d="M198.194 262.463C199.22 262.225 200.583 262.454 201.642 262.483L205.867 262.496L207.05 268.413L207.573 271.43L185.584 271.295C185.284 270.913 185.277 270.947 185.325 270.467C185.936 269.609 187.261 268.952 188.136 268.377L198.194 262.463Z" fill="white"/>
<path d="M200.782 263.211L200.94 263.178C201.268 263.154 201.633 263.202 201.861 263.47C202.13 263.786 202.091 263.986 202.092 264.376C201.917 264.737 201.708 264.838 201.374 265.023C201.055 265.075 200.882 265.127 200.594 264.919C200.298 264.705 200.245 264.381 200.182 264.052C200.349 263.581 200.359 263.526 200.782 263.211Z" fill="black"/>
<path d="M146.262 157.746C146.896 160.509 146.806 163.632 146.993 166.463L147.746 205.375L141.817 206.898C141.99 207.53 141.859 208.267 141.814 208.917L141.558 212.545C136.049 213.808 130.254 214.014 124.655 213.166C122.372 212.82 120.179 212.216 117.954 211.613L117.585 206.955L112.588 205.813C112.289 204.714 112.418 203.203 112.352 202.043L111.765 189.991L111.397 182.931C111.347 181.897 111.164 180.701 111.312 179.689L112.159 179.591C113.136 179.265 113.95 178.777 114.399 177.801C114.999 176.496 114.433 166.812 114.671 166.597C114.753 166.523 116.811 166.463 117.07 166.443C125.532 165.812 135.137 164.99 142.538 160.543C143.933 159.705 145.149 158.953 146.262 157.746Z" fill="black"/>
<path d="M141.817 206.898C141.99 207.53 141.859 208.267 141.814 208.917L141.558 212.545C136.049 213.808 130.254 214.014 124.655 213.166C122.372 212.82 120.179 212.216 117.954 211.613L117.585 206.955C122.039 207.729 126.415 207.917 130.929 207.842C134.615 207.781 138.183 207.574 141.817 206.898Z" fill="#EBEBF5"/>
<path d="M75.6803 158.823L81.6467 161.305C90.4688 164.482 99.6486 166.079 108.992 166.623L109.033 173.717C109.03 174.856 108.825 176.344 109.071 177.422C109.188 177.936 109.433 178.354 109.805 178.725C110.162 179.081 110.551 179.316 110.992 179.555L109.424 205.841L104.477 206.994L103.951 212.393L103.933 212.398L103.807 212.071C101.562 212.553 99.3626 213.089 97.0811 213.396C93.1297 213.928 88.9373 213.994 84.9799 213.494C83.7426 213.338 82.34 213.151 81.2205 212.569L80.9666 206.629L74.4881 204.986L75.6803 158.823Z" fill="black"/>
<path d="M80.9666 206.629C85.2149 207.526 89.3625 207.787 93.6918 207.773C97.311 207.762 100.9 207.58 104.477 206.994L103.951 212.393L103.933 212.398L103.807 212.071C101.562 212.553 99.3626 213.089 97.0811 213.396C93.1297 213.928 88.9373 213.994 84.9799 213.494C83.7426 213.338 82.34 213.151 81.2205 212.569L80.9666 206.629Z" fill="#EBEBF5"/>
<path d="M208.582 87.1198C211.432 88.5136 214.361 88.6272 217.355 87.5941L217.907 87.3956L218.377 88.3371C220.617 91.4721 223.407 93.2883 226.837 94.9619C227.571 95.32 228.481 95.8511 229.256 96.0651C230.894 96.7056 232.527 97.372 233.952 98.4227L232.746 109.943L232.891 110.024C235.583 111.566 237.561 114.136 238.346 117.141C239.055 119.86 238.691 123.022 237.23 125.445L236.865 126.023C236.44 126.709 235.972 127.294 235.437 127.898L234.009 129.173C234.432 131.419 235.361 133.682 236.066 135.86L241.326 152.103L241.039 152.189C238.465 152.929 235.769 153.354 233.125 153.766C223.483 155.268 213.707 155.499 203.99 154.557C200.816 154.249 197.581 153.889 194.482 153.123C191.703 152.437 188.879 151.364 186.377 149.977L190.932 134.464C191.039 134.068 191.005 133.956 190.886 133.569C191.819 131.781 192.087 129.552 192.463 127.576C191.911 126.959 191.454 126.323 190.999 125.632L190.972 125.613C189.42 123.51 188.787 120.683 189.062 118.107C189.44 114.564 191.324 111.875 194.036 109.663C194.15 108.565 193.89 107.237 193.81 106.126L193.37 98.5453C194.907 97.5557 196.581 96.8461 198.282 96.1958C202.676 94.4521 206.195 92.2076 208.264 87.84L208.582 87.1198Z" fill="#FB7A4B"/>
<path d="M190.999 125.632C191.55 125.846 192.031 126.603 192.442 127.03C194.584 129.252 197.375 129.984 200.362 130.015C198.781 130.606 197.227 130.636 195.67 129.958C194.472 129.435 193.357 128.516 192.463 127.576C191.911 126.959 191.454 126.323 190.999 125.632Z" fill="black"/>
<path d="M234.009 129.173L233.642 129.401C231.694 130.586 229.898 130.643 227.745 130.111C228.261 129.895 229.042 129.981 229.617 129.908C230.711 129.77 231.925 129.411 232.922 128.948C233.616 128.626 234.343 128.182 234.937 127.696C235.502 127.233 236.194 126.239 236.865 126.022C236.44 126.709 235.972 127.294 235.437 127.898L234.009 129.173Z" fill="black"/>
<path d="M208.582 87.1198C211.432 88.5136 214.361 88.6272 217.355 87.5941L217.907 87.3956L218.377 88.3371C220.617 91.4721 223.407 93.2883 226.837 94.9619C227.571 95.32 228.481 95.8511 229.256 96.0651L227.13 108.686C222.285 109.377 216.913 112.083 213.85 115.955C212.953 115.061 212.067 114.1 211.088 113.298C207.891 110.68 203.978 108.911 199.87 108.363L198.282 96.1958C202.676 94.4521 206.195 92.2076 208.264 87.84L208.582 87.1198Z" fill="white"/>
<path d="M208.582 87.1198C211.432 88.5136 214.361 88.6272 217.355 87.5941L217.907 87.3956L218.377 88.3371L216.212 88.9942C213.477 89.6285 210.658 89.343 208.264 87.84L208.582 87.1198Z" fill="#EBEBF5"/>
<path d="M120.51 76.9706L120.539 81.0193C120.554 81.7439 120.51 82.5358 120.623 83.247C121.255 83.3409 121.822 83.3999 122.465 83.3515L122.459 83.196L121.386 83.1135L121.291 82.895C121.588 82.6086 121.638 82.6463 122.055 82.6564C124.369 82.7131 127.154 83.7817 129.316 84.5937C139.078 88.2595 147.525 94.0413 154.632 101.649C155.915 103.021 157.229 104.402 158.262 105.968L158.345 106.075L158.507 106.514C158.067 107.299 157.176 108.058 156.523 108.682C152.481 112.18 147.76 115.235 142.823 117.281L145.4 133.712C145.436 136.287 145.889 138.932 146.07 141.512C146.122 142.255 146.383 143.553 145.942 144.167C146.245 146.425 146.354 148.722 146.439 150.998C146.523 153.257 146.599 155.501 146.262 157.746C145.149 158.953 143.933 159.705 142.538 160.543C135.137 164.99 125.532 165.812 117.07 166.443C116.811 166.463 114.753 166.523 114.671 166.597C114.433 166.812 114.999 176.496 114.399 177.801C113.95 178.777 113.136 179.265 112.159 179.591L110.992 179.555C110.551 179.316 110.162 179.081 109.805 178.725C109.433 178.354 109.188 177.936 109.071 177.422C108.825 176.344 109.03 174.856 109.033 173.717L108.992 166.623C99.6486 166.079 90.4688 164.482 81.6467 161.305L75.6803 158.823C75.1193 152.452 75.5636 145.959 76.1518 139.607C76.0574 139.488 75.9176 139.394 75.869 139.25C75.8307 139.136 75.8866 138.704 75.8907 138.563L75.9194 136.577L79.0052 117.895C77.1963 117.213 75.4769 115.988 73.8696 114.923C70.9313 112.975 68.1219 111.036 65.4613 108.714C64.9054 108.118 64.2108 107.706 63.6945 107.055L63.8961 106.813L63.7807 106.515C65.2568 103.8 67.4614 101.177 69.5949 98.9547C75.6405 92.6573 82.6102 88.0576 90.8027 85.035C93.692 83.969 96.901 82.9983 99.9628 82.6344C100.275 82.5974 100.943 82.4605 101.219 82.5366C101.388 82.5832 101.537 82.6836 101.697 82.7571C101.977 82.7548 101.85 82.7949 102.079 82.6412L102.186 77.571C102.747 77.9752 103.256 78.4465 103.843 78.8173C106.077 80.2282 108.586 80.9435 111.227 80.9528C113.762 80.9616 116.288 80.3962 118.378 78.9081C119.158 78.3525 119.834 77.6463 120.51 76.9706Z" fill="white"/>
<path d="M111.752 103.409C112.025 103.333 112.194 103.344 112.476 103.349C112.701 103.564 112.916 103.712 112.923 104.056C112.932 104.458 112.749 104.583 112.486 104.832L112.088 104.89C111.716 104.704 111.542 104.686 111.441 104.246C111.36 103.894 111.547 103.658 111.752 103.409Z" fill="black"/>
<path d="M111.943 97.0687C112.148 97.0524 112.339 97.0964 112.541 97.1272C112.883 97.4724 112.868 97.4874 112.921 97.9744C112.681 98.4076 112.678 98.4239 112.227 98.6214L111.7 98.5464C111.406 98.2612 111.344 98.2418 111.276 97.845C111.481 97.3839 111.485 97.3399 111.943 97.0687Z" fill="black"/>
<path d="M63.8961 106.813C64.8404 107.19 65.6652 107.93 66.4576 108.557L70.0731 111.365C72.9193 113.481 76.0212 115.563 79.1867 117.15L81.3799 109.76C81.9086 108.123 82.4127 106.454 83.2372 104.938C83.1303 105.964 82.738 106.952 82.4283 107.931L81.3747 111.492L78.7413 122.025L76.9259 132.92L76.4303 137.073C76.3452 137.901 76.3325 138.799 76.1518 139.607C76.0574 139.488 75.9176 139.394 75.869 139.25C75.8307 139.136 75.8866 138.704 75.8907 138.563L75.9194 136.577L79.0052 117.895C77.1963 117.213 75.4769 115.988 73.8696 114.923C70.9313 112.975 68.1219 111.036 65.4613 108.714C64.9054 108.118 64.2108 107.706 63.6945 107.055L63.8961 106.813Z" fill="black"/>
<path d="M99.0834 83.2693C100.338 85.8546 103.239 87.87 105.889 88.7934C109.695 90.1189 114.495 89.9957 118.134 88.2222C120.521 87.059 122.113 85.5243 123.671 83.4087C123.976 83.5016 124.311 83.5557 124.527 83.8057C123.445 86.2616 120.702 88.3001 118.346 89.4202C114.252 91.366 109.516 91.3551 105.285 89.8397C102.44 88.8205 99.5355 86.5504 98.2263 83.7858C98.387 83.4499 98.7462 83.4069 99.0834 83.2693Z" fill="black"/>
<path d="M145.942 144.167C145.62 143.308 145.662 142.365 145.591 141.461L145.215 137.376L143.822 126.377L141.183 112.47L140.422 108.574C140.251 107.687 140.013 106.77 140 105.867L140.167 105.951L142.734 116.603C144.001 116.098 145.213 115.378 146.4 114.708C149.454 112.986 152.288 111.043 155.033 108.86C156.163 107.962 157.176 106.917 158.345 106.075L158.507 106.514C158.067 107.299 157.176 108.058 156.523 108.682C152.481 112.18 147.76 115.235 142.823 117.281L145.4 133.712C145.436 136.287 145.889 138.932 146.07 141.512C146.122 142.255 146.383 143.553 145.942 144.167Z" fill="black"/>
<path d="M108.043 167L115 167.008L114.944 174.601C114.931 175.762 115.133 177.157 114.776 178.281C114.664 178.634 114.336 178.944 114.04 179.236C113.326 179.63 112.632 179.926 111.695 179.99C110.77 180.052 109.704 179.824 109.028 179.388C108.613 179.12 108.326 178.742 108.209 178.362C107.849 177.186 108.064 175.768 108.06 174.557L108.043 167Z" fill="black"/>
<path d="M118.821 108.121L132.05 108.131L131.985 117.013C131.843 118.092 131.104 118.716 130.314 119.365C129.023 120.366 127.42 121.376 125.739 121.426C123.713 121.485 121.239 119.988 119.824 118.595C119.481 118.257 118.956 117.711 118.882 117.229C118.752 116.378 118.859 115.324 118.854 114.45L118.821 108.121Z" fill="#B1B3B2"/>
<path d="M120.51 76.9706L120.539 81.0193C120.554 81.7439 120.51 82.5358 120.623 83.247C121.255 83.3409 121.822 83.3999 122.465 83.3515L122.459 83.196C122.862 83.2467 123.288 83.2685 123.671 83.4087C122.113 85.5243 120.521 87.059 118.134 88.2222C114.495 89.9957 109.695 90.1189 105.889 88.7934C103.239 87.87 100.338 85.8546 99.0834 83.2692C99.9581 83.0705 100.875 83.143 101.697 82.7571C101.977 82.7548 101.85 82.7949 102.079 82.6412L102.186 77.571C102.747 77.9752 103.256 78.4465 103.843 78.8173C106.077 80.2282 108.586 80.9435 111.227 80.9528C113.762 80.9616 116.288 80.3962 118.378 78.9081C119.158 78.3525 119.834 77.6463 120.51 76.9706Z" fill="#B1B3B2"/>
<path d="M186.377 149.977C188.879 151.364 191.703 152.437 194.482 153.123C197.581 153.889 200.816 154.249 203.99 154.557C213.707 155.499 223.483 155.268 233.125 153.766C235.769 153.354 238.465 152.929 241.039 152.189L241.326 152.103C241.486 152.857 241.608 153.701 241.874 154.423C242.55 156.261 243.619 157.983 244.342 159.825C246.235 164.65 247.338 169.715 247.933 174.855C248.872 182.969 248.306 191.186 247.017 199.226C244.889 212.501 240.684 225.234 236.446 237.953L232.674 248.598C232.3 249.611 231.987 251 231.426 251.904L231.36 251.997C230.789 254.257 230.639 256.668 230.325 258.976C230.179 260.05 229.835 261.294 229.896 262.374C227.413 262.935 224.943 262.171 222.447 262.4L221.254 268.214L207.198 268.19L207.05 268.413L205.867 262.496C205.67 259.011 206.202 255.27 206.458 251.784L196.101 251.768L195.911 251.707C195.312 250.619 194.899 249.286 194.449 248.123L190.99 238.685L184.964 220.789C182.161 211.711 179.774 202.338 178.873 192.857C178.325 187.097 178.381 181.302 178.893 175.542C179.261 175.181 179.663 174.631 179.785 174.123C179.9 173.641 179.631 173.277 179.399 172.878C179.883 168.69 181.076 164.367 182.361 160.357C183.492 156.827 184.736 153.305 186.377 149.977Z" fill="black"/>
<path d="M212.727 184.994L213.699 184.971L214.57 193.117L215.876 205.825L219.733 242.086L220.519 249.794C220.567 250.218 220.559 251.214 220.724 251.566C220.74 251.601 220.783 251.618 220.817 251.638C221.024 251.766 221.245 251.765 221.481 251.79L231.36 251.997C230.789 254.257 230.639 256.668 230.325 258.976C230.179 260.05 229.835 261.294 229.896 262.374C227.413 262.935 224.943 262.171 222.447 262.4L221.254 268.214L207.198 268.19L207.05 268.413L205.867 262.496C205.67 259.011 206.202 255.27 206.458 251.784C206.847 251.773 207.147 251.841 207.472 251.611L212.727 184.994Z" fill="#6FDE6D"/>
<path d="M221.481 251.79L231.36 251.997C230.789 254.257 230.639 256.668 230.325 258.976C230.179 260.05 229.834 261.294 229.896 262.374C227.413 262.935 224.943 262.171 222.447 262.4L221.481 251.79Z" fill="#EBEBF5"/>
</svg>
