<svg width="317" height="317" viewBox="0 0 317 317" fill="none" xmlns="http://www.w3.org/2000/svg">
<path d="M0 158.5C0 70.9629 70.9629 0 158.5 0C246.037 0 317 70.9629 317 158.5C317 246.037 246.037 317 158.5 317C70.9629 317 0 246.037 0 158.5Z" fill="#6FDE6D"/>
<path d="M100.116 76.9509C99.7121 77.0259 99.324 77.0559 98.9129 77.0177C97.8096 76.9146 96.813 76.4496 96.1087 75.5821C95.4385 74.7571 95.1066 73.4388 95.2546 72.3918C95.4065 71.3171 95.9237 70.3979 96.7979 69.7457C97.6099 69.1401 98.6094 68.6528 99.6384 68.8126C100.089 69.2053 100.217 69.3033 100.254 69.9226L100.273 70.4633L100.393 75.8116C100.372 76.3283 100.404 76.5088 100.116 76.9509Z" fill="white"/>
<path d="M100.393 75.8116C99.8716 75.9101 99.1492 75.9721 98.6465 75.7679C98.0755 75.536 97.7201 75.0443 97.4889 74.4904L97.4341 74.3546L97.2753 73.9156C97.1474 73.3335 97.0799 72.3725 97.4281 71.8802C98.0748 70.9658 99.2278 70.6414 100.274 70.4633L100.393 75.8116Z" fill="#EBEBF5"/>
<path d="M130.445 68.696C132.066 68.6922 133.194 68.8184 134.419 70.0242C135.23 70.8235 135.649 71.7713 135.605 72.9106C135.557 74.1458 134.87 75.3029 133.939 76.086C132.87 76.9865 131.921 77.1475 130.574 77.1975C130.481 77.1448 130.385 77.0941 130.299 77.0307L130.284 72.2387C130.287 71.0518 130.255 69.8711 130.445 68.696Z" fill="white"/>
<path d="M128.819 260.124L137.373 260.108L136.764 268.882C136.263 269.152 135.378 269.036 134.807 269.032L130.203 268.975L128.819 260.124Z" fill="white"/>
<path d="M92.6423 260.127L101.363 260.12L100.286 266.636C100.172 267.367 99.9241 268.276 99.9361 269.007C98.7387 269.076 97.5198 269.027 96.32 269.019C95.3419 269.013 94.3124 269.072 93.3452 268.924L92.6423 260.127Z" fill="white"/>
<path d="M193.113 269.157L193.942 274.046L178.317 274.061L174.825 274.067C174.513 274.068 173.931 274.144 173.649 274.069C173.564 274.047 173.5 273.976 173.425 273.93L173.42 272.848C173.501 272.76 173.515 272.735 173.635 272.668C173.94 272.499 174.444 272.417 174.785 272.32L177.437 271.569C180.406 270.678 183.379 269.57 186.388 268.829C186.62 268.772 186.832 268.729 187.067 268.801L187.26 268.873L187.355 269.104C189.21 269.317 191.239 269.204 193.113 269.157Z" fill="black"/>
<path d="M218.247 268.758L218.4 268.72C219.289 268.539 222.773 269.826 223.74 270.109L232.779 272.66L232.723 273.907C232.391 274.149 231.913 274.051 231.505 274.051H227.617L211.311 274.055L212.298 269.163L218.14 269.169L218.247 268.758Z" fill="black"/>
<path d="M93.3452 268.924C94.3125 269.072 95.342 269.013 96.32 269.019C97.5199 269.027 98.7388 269.076 99.9362 269.007L100.535 269.013C100.824 269.32 100.7 270.386 100.709 270.84L100.913 274.014C100.183 274.149 99.2948 274.061 98.5465 274.061L93.865 274.063L78.4924 274.117L78.6095 272.649L89.2405 269.806C90.5122 269.486 92.0425 268.908 93.3452 268.924Z" fill="black"/>
<path d="M90.2887 254.16L99.5601 254.166C100.78 254.171 102.226 254.322 103.422 254.129L104.26 254.092C104.569 254.427 104.441 255.288 104.442 255.758L104.457 260.127L101.363 260.12L92.6423 260.127L89.4231 260.228L89.3609 256.278C89.3368 255.836 89.0799 254.661 89.1816 254.284C89.1999 254.217 89.2609 254.17 89.3005 254.113L90.2887 254.16Z" fill="#797A7A"/>
<path d="M136.764 268.882L136.896 268.817C138.219 268.369 150.016 272.023 152.319 272.702C152.435 273.123 152.375 273.621 152.37 274.058L129.165 274.065L129.445 269.063C129.736 268.906 129.879 268.953 130.203 268.975L134.807 269.032C135.378 269.036 136.263 269.152 136.764 268.882Z" fill="black"/>
<path d="M126.859 254.104C128.068 254.329 129.513 254.155 130.755 254.159L140.589 254.21L141.725 254.161L141.338 260.115L137.373 260.108L128.819 260.124L125.585 260.128L125.581 254.186C125.942 254.199 126.345 254.247 126.696 254.153L126.859 254.104Z" fill="#797A7A"/>
<path d="M223.177 66.0363C228.364 66.1334 233.499 68.1167 237.155 71.8893C240.3 75.1339 242.299 79.7032 242.231 84.2563C242.163 88.7806 240.424 93.2184 237.123 96.3643C234.29 99.0637 230.77 100.623 226.821 100.508C223.017 100.396 219.545 98.9078 216.953 96.0954C215.667 94.7007 214.549 92.8772 213.873 91.1056C215.426 89.0623 216.763 86.8132 217.38 84.3008L218.767 84.4395C219.962 84.4181 221.154 84.1278 222.01 83.2504C222.809 82.4307 223.254 81.2671 223.205 80.1216C223.153 78.9323 222.503 77.9275 221.643 77.1537L221.506 77.0314C221.754 76.5948 222.132 76.235 222.411 75.8147C222.739 75.3216 222.99 74.7523 223.213 74.2049C224.337 71.4488 224.313 68.7696 223.177 66.0363Z" fill="black"/>
<path d="M187.26 268.873L179.773 196.91L179.994 196.704L196.727 199.472L193.113 269.157C191.239 269.204 189.21 269.317 187.355 269.104L187.26 268.873Z" fill="white"/>
<path d="M224.484 196.595C224.684 197.522 224.331 198.961 224.249 199.919L223.457 209.052L219.906 249.478L218.759 262.333L218.387 266.493C218.324 267.233 218.199 268.017 218.247 268.758L218.14 269.169L212.298 269.163C212.513 267.263 212.201 265.027 212.09 263.106L211.757 255.431L211.147 241.745L210.579 230.081L209.218 215.574L207.765 199.372L224.484 196.595Z" fill="white"/>
<path d="M73.4721 124.424L87.7798 132.465L87.9678 132.507L92.2465 125.526L92.2909 137.019L92.3157 156.358C92.3188 157.295 92.1792 162.806 92.4241 163.105C92.4113 164.539 91.7803 166.17 91.4434 167.576C91.0262 169.317 90.7321 171.239 90.1289 172.917L90.1344 173.015C90.027 173.057 89.908 173.076 89.8119 173.14C89.5449 173.316 89.172 174.16 89.0021 174.467C87.9546 176.363 87.0986 178.46 85.9038 180.257L82.4517 178.176C73.5941 172.453 66.8191 163.655 64.596 153.257C64.0413 150.663 63.8054 148.179 64.1865 145.544C64.5907 142.751 65.6512 140.139 66.7638 137.564L70.5018 129.743C71.4523 127.953 72.3705 126.127 73.4721 124.424Z" fill="#BFBEBC"/>
<path d="M87.7799 132.465L87.9678 132.507L92.2465 125.526L92.291 137.019L92.3158 156.358C92.3189 157.295 92.1793 162.806 92.4241 163.105C92.4114 164.539 91.7803 166.17 91.4434 167.576C91.0263 169.317 90.7321 171.239 90.1289 172.917L89.0259 172.063C81.9601 166.35 77.2678 157.624 76.3176 148.599C78.9029 145.973 81.0121 143.158 83.0081 140.065L86.4114 134.485C86.6952 134.002 87.0515 133.056 87.4182 132.688C87.5182 132.587 87.6593 132.539 87.7799 132.465Z" fill="#6FDE6D"/>
<path d="M141.826 132.094L151.006 126.659C152.651 125.672 154.414 124.393 156.206 123.725L156.283 123.936C156.519 124.549 156.919 125.137 157.24 125.711L159.448 129.61L162.536 135.261C163.26 136.587 164.035 137.904 164.627 139.296C167.359 145.716 166.81 153.225 164.159 159.573C163.173 161.934 161.819 164.247 160.252 166.267C157.33 170.032 153.488 173.366 149.911 176.508C148.465 177.778 146.649 179.563 144.891 180.296L141.27 174.44L139.767 172.342C139.528 171.74 139.408 171.02 139.237 170.389C138.732 168.52 138.236 166.338 137.373 164.61L137.833 164.408C138.048 162.972 137.945 161.387 137.921 159.938L137.852 153.616L137.594 125.121C137.845 125.253 138.38 126.497 138.553 126.804C139.488 128.46 140.515 130.411 141.684 131.915L141.826 132.094Z" fill="#BFBEBC"/>
<path d="M137.373 164.61L137.833 164.408C138.048 162.972 137.945 161.387 137.921 159.938L137.852 153.616L137.594 125.121C137.845 125.253 138.38 126.497 138.553 126.804C139.488 128.46 140.515 130.411 141.684 131.915L141.826 132.094C142.255 132.412 142.492 132.907 142.759 133.361L144.146 135.776L147.773 141.8C149.49 144.6 151.359 147.443 153.947 149.522C152.597 156.964 148.937 163.482 144.719 169.669C143.625 171.274 142.236 172.768 141.27 174.44L139.767 172.342C139.528 171.74 139.408 171.02 139.237 170.389C138.732 168.52 138.236 166.338 137.373 164.61Z" fill="#6FDE6D"/>
<path d="M184.858 76.2785C184.436 71.3522 184.719 66.9437 187.454 62.6782C190.114 58.5288 194.649 55.53 199.458 54.5271C205.062 53.3582 210.474 54.4402 215.24 57.5739C216.875 58.6488 218.308 59.9991 219.468 61.5745C219.794 62.0159 220.19 62.5138 220.304 63.0574C221.646 63.5404 222.523 64.846 223.177 66.0363C224.313 68.7696 224.337 71.4488 223.213 74.2049C222.99 74.7523 222.739 75.3216 222.411 75.8147C222.132 76.235 221.754 76.5948 221.506 77.0314L221.643 77.1537C222.503 77.9275 223.153 78.9323 223.205 80.1215C223.254 81.2671 222.809 82.4307 222.01 83.2504C221.154 84.1277 219.961 84.418 218.767 84.4394L217.38 84.3008C216.763 86.8132 215.426 89.0623 213.873 91.1056C212.26 92.9034 210.428 94.6319 208.172 95.5898L208 95.6737C205.33 96.9322 202.309 97.1641 199.481 96.3795C198.574 96.1281 197.745 95.7316 196.861 95.4199C193.948 93.9764 191.508 91.6651 189.839 88.8777C189.086 87.6187 188.539 86.2994 187.954 84.958C187.889 84.6718 187.856 84.4392 187.647 84.2176L186.478 84.3803C185.694 84.3539 184.953 84.3349 184.216 84.0261C183.119 83.5671 182.309 82.7296 181.898 81.6115C181.528 80.6024 181.545 79.3725 182.029 78.4043C182.621 77.2174 183.647 76.6556 184.858 76.2785Z" fill="white"/>
<path d="M208.875 75.4454C209.447 75.4148 209.945 75.3766 210.492 75.5881L210.657 75.6552L211.005 75.7832C211.486 75.9738 211.715 76.1593 211.925 76.6354L211.738 76.8356C211.336 76.7284 211.018 76.4535 210.685 76.2139C209.207 75.7534 209.052 76.236 207.833 76.8077L207.617 76.5753L207.668 76.2148C208.038 75.8633 208.423 75.6701 208.875 75.4454Z" fill="black"/>
<path d="M194.284 75.2152C195.059 75.1774 195.833 75.1623 196.539 75.5492C196.886 75.7395 197.003 75.8462 197.119 76.2149L196.899 76.5208C196.263 76.2874 195.811 76.0022 195.129 75.8715L194.975 75.8436C193.894 75.9005 193.562 76.1173 192.694 76.7207C192.493 76.5559 192.371 76.4653 192.286 76.2149C192.808 75.6619 193.568 75.4029 194.284 75.2152Z" fill="black"/>
<path d="M218.577 79.3389L218.672 79.2959C219.088 79.1591 219.737 79.2649 220.103 79.4925C220.432 79.6979 220.663 80.0341 220.713 80.4203C220.8 81.0843 220.265 81.6151 219.842 82.0308C219.3 82.312 218.805 82.5843 218.18 82.4504C218.068 81.7629 218.333 80.0134 218.577 79.3389Z" fill="#BFBEBC"/>
<path d="M185.582 78.0172C186.096 77.9045 186.72 77.9679 187.249 77.9646L187.422 81.0211C187.452 81.414 187.547 81.9369 187.287 82.2312L186.301 82.2661L185.918 82.1702C185.304 82.0058 184.703 81.6129 184.406 81.0249C184.128 80.4763 184.159 79.7421 184.386 79.1836C184.635 78.5711 184.98 78.2642 185.582 78.0172Z" fill="#EBEBF5"/>
<path d="M194.237 77.7769C194.38 77.7516 194.393 77.742 194.558 77.7524C195.001 77.78 195.444 78.1366 195.696 78.4769C196.217 79.1808 196.314 80.2187 196.159 81.0602C196.014 81.8427 195.609 82.4903 194.957 82.9435C194.617 83.0502 194.427 83.1718 194.076 83.0135C193.674 82.8327 193.358 82.2762 193.202 81.8881C192.841 80.9898 192.818 79.6184 193.227 78.7273C193.465 78.2077 193.706 77.9811 194.237 77.7769Z" fill="black"/>
<path d="M209.628 83.3381C209.054 82.9464 208.704 82.5742 208.485 81.896C208.197 81.0018 208.16 79.566 208.627 78.7381C208.838 78.362 209.138 78.0604 209.576 77.9756C210.001 77.8934 210.423 77.9823 210.76 78.2575C211.333 78.7266 211.553 79.4614 211.579 80.18C211.625 81.457 211.171 82.3507 210.286 83.2192C210.047 83.2429 209.856 83.2617 209.628 83.3381Z" fill="black"/>
<path d="M184.859 76.2785C184.436 71.3522 184.719 66.9437 187.454 62.6782C190.114 58.5288 194.649 55.53 199.458 54.5271C205.062 53.3582 210.474 54.4402 215.24 57.5739C216.875 58.6488 218.308 59.9991 219.468 61.5745C219.794 62.0159 220.191 62.5138 220.304 63.0574C220.922 67.4469 220.949 71.8381 219.544 76.1069L219.368 76.1463C218.671 76.3093 218.45 76.4191 218.047 77.0208C217.775 76.8891 217.886 76.7411 217.744 76.6565C217.451 76.4806 216.045 76.5412 215.643 76.5039C214.824 76.428 214.001 76.2905 213.198 76.1156C206.882 74.7405 200.727 71.1981 197.437 65.4886C193.988 67.1482 191.305 69.8322 189.521 73.2057C188.828 74.5142 188.265 75.9003 187.541 77.1886L187.397 77.104C186.539 76.6097 185.843 76.3713 184.859 76.2785Z" fill="black"/>
<path d="M99.6384 68.8126L98.7664 54.7521L118.955 44.3841C119.491 45.0619 119.849 45.7155 120.111 46.5345L120.161 46.6938C122.276 46.3704 123.713 45.3645 125.285 44C125.885 44.5362 126.559 45.1434 126.934 45.8671C127.341 46.6513 127.486 47.6515 127.661 48.5095C128.81 48.0508 129.761 47.5174 130.547 46.5417L130.651 46.4109C131.509 47.2159 132.374 48 132.857 49.0928C133.674 50.9453 133.71 53.9549 132.507 55.6639C132.303 55.9538 131.479 56.6846 131.413 56.9433C131.365 57.1332 131.818 59.293 131.852 59.6846C132.106 62.5624 131.515 66.0216 130.445 68.696C130.255 69.8712 130.287 71.0518 130.284 72.2387L130.299 77.0307C130.378 81.7898 131.165 86.9394 127.527 90.6673C126.01 92.2212 124.026 93.1048 121.962 93.6801C117.275 94.711 112.934 94.6704 108.259 93.5698C105.452 92.8126 103.046 91.3654 101.462 88.8691C99.7293 86.138 99.9155 83.3429 99.9593 80.2451C99.9744 79.181 99.8891 77.991 100.116 76.9509C100.405 76.5088 100.372 76.3283 100.393 75.8116L100.274 70.4633L100.254 69.9226C100.217 69.3033 100.09 69.2053 99.6384 68.8126Z" fill="black"/>
<path d="M103.217 59.518C110.695 62.1157 119.054 62.9289 126.755 60.7831C128.019 65.1284 129.337 69.8133 129.061 74.3871C128.895 77.1389 127.625 80.2744 125.534 82.0813C125.06 82.3634 124.57 82.6275 124.025 82.7463C122.238 83.1363 120.908 81.8328 119.526 80.9942C118.291 80.2439 113.021 80.2545 111.598 80.7952C110.455 81.2287 109.673 82.2688 108.429 82.5684C107.386 82.8198 106.386 82.6855 105.491 82.0854C103.552 80.7863 102.28 77.8992 101.876 75.6742C101.612 74.2186 101.688 72.7275 101.64 71.2534C101.611 70.3355 101.455 69.1863 101.652 68.2955C101.795 67.6466 102.168 67.0163 102.406 66.3937C103.322 63.9903 103.64 62.0724 103.217 59.518Z" fill="white"/>
<path d="M121.772 67.4118C122.275 67.3498 122.816 67.3051 123.316 67.4063C124.13 67.5712 125.072 68.0251 125.509 68.7653C125.679 69.0529 125.67 69.18 125.57 69.4862L125.347 69.527C124.983 69.1954 124.609 68.9154 124.203 68.6389C123.411 68.3214 122.493 68.2222 121.651 68.3976C121.185 68.4951 120.365 69.019 119.956 68.8854L119.943 68.585C120.411 67.9081 121.031 67.6774 121.772 67.4118Z" fill="black"/>
<path d="M107.831 67.173C108.335 67.1912 108.834 67.2292 109.31 67.4087C109.932 67.6435 110.6 68.0193 110.883 68.6451L110.774 68.9133C110.24 69.0303 109.298 68.3651 108.702 68.2419C108.139 68.1253 107.561 68.1991 106.995 68.2529C106.102 68.5776 105.456 69.1219 104.74 69.7253L104.5 69.6892L104.418 69.366C104.506 69.1973 104.588 69.0368 104.704 68.8854C105.477 67.8742 106.593 67.3513 107.831 67.173Z" fill="black"/>
<path d="M122.563 71.2366C122.902 71.2224 123.261 71.194 123.593 71.277C124.051 71.3916 124.405 71.735 124.645 72.1296C124.882 72.5206 124.893 72.868 124.77 73.3025C124.571 73.9987 124.167 74.2873 123.552 74.6177C123.245 74.6713 122.969 74.7091 122.662 74.6288C122.229 74.5156 121.833 74.1979 121.612 73.8117C121.37 73.389 121.384 72.802 121.515 72.3451C121.694 71.7215 122.007 71.5353 122.563 71.2366Z" fill="black"/>
<path d="M107.058 71.4086C107.356 71.3387 107.679 71.3036 107.985 71.3541C108.457 71.4324 108.971 71.7893 109.243 72.1784C109.48 72.5184 109.555 72.956 109.451 73.3576C109.284 73.9999 108.836 74.3493 108.304 74.6937C107.997 74.7583 107.73 74.7838 107.416 74.7396C106.897 74.6665 106.444 74.3866 106.157 73.9437C105.917 73.5746 105.934 72.9127 106.049 72.5025C106.202 71.9616 106.588 71.6665 107.058 71.4086Z" fill="black"/>
<path d="M108.259 93.5698C112.934 94.6704 117.275 94.711 121.962 93.6801L121.971 97.607C121.974 98.1652 122.05 98.7946 121.994 99.3437L138.831 104.49C140.501 105.007 142.49 105.325 144.04 106.093C145.756 106.942 147.346 108.32 148.543 109.806C149.814 111.383 150.774 113.335 151.793 115.085L156.594 123.316C156.48 123.608 156.457 123.57 156.206 123.725C154.414 124.393 152.651 125.672 151.006 126.659L141.827 132.094L141.685 131.915C140.515 130.411 139.488 128.46 138.553 126.804C138.38 126.497 137.845 125.253 137.594 125.121L137.852 153.616L137.921 159.938C137.945 161.387 138.048 162.972 137.833 164.408L137.373 164.61C136.243 164.77 135.099 165.099 133.982 165.342L126.372 166.866C120.868 167.761 115.163 167.956 109.608 167.502C103.596 167.01 97.84 165.832 92.4242 163.105C92.1793 162.806 92.3189 157.295 92.3158 156.358L92.291 137.019L92.2466 125.526L87.9679 132.507L87.7799 132.465L73.4721 124.424C73.2383 124.289 73.1167 124.222 72.9954 123.976C75.2158 120.731 76.5805 116.956 78.7688 113.708C80.4474 111.216 82.3672 108.765 84.9291 107.133C86.0682 106.407 87.1868 106.105 88.4595 105.712L91.9246 104.58L108.151 99.3588C108.262 98.7028 108.189 97.9328 108.195 97.2643L108.259 93.5698Z" fill="white"/>
<path d="M108.259 93.5698C112.934 94.6704 117.275 94.711 121.962 93.6801L121.971 97.607C121.973 98.1652 122.05 98.7946 121.993 99.3437C121.991 100.151 122.069 101.369 121.693 102.092L121.616 102.228C121.412 102.601 121.196 102.931 120.911 103.247C119.564 104.735 117.824 105.382 115.846 105.455C113.482 105.542 111.156 104.975 109.421 103.296C108.222 102.136 108.153 100.928 108.151 99.3588C108.262 98.7028 108.189 97.9328 108.195 97.2643L108.259 93.5698Z" fill="#BFBEBC"/>
<path d="M92.4242 163.105C97.84 165.832 103.596 167.01 109.608 167.501C115.163 167.956 120.868 167.761 126.372 166.866L133.982 165.342C135.099 165.099 136.243 164.77 137.373 164.61C138.236 166.338 138.732 168.52 139.237 170.389C139.408 171.02 139.528 171.74 139.767 172.342L141.27 174.44L144.891 180.296C143.754 180.987 142.419 181.683 141.398 182.533L142.4 189.581C143.308 198.606 143.141 207.661 142.787 216.708L141.254 244.582L140.589 254.21L130.755 254.159C129.514 254.155 128.068 254.329 126.859 254.104L116.643 188.818L113.967 188.796L103.422 254.129C102.226 254.322 100.78 254.171 99.5602 254.166L90.2888 254.16L87.9568 218.553C87.611 212.005 87.1131 205.332 87.2986 198.773L88.096 187.843L88.8755 182.248L85.9039 180.257C87.0987 178.46 87.9547 176.363 89.0022 174.467C89.1721 174.16 89.545 173.316 89.812 173.14C89.9081 173.076 90.0271 173.057 90.1345 173.015L90.129 172.917C90.7322 171.239 91.0263 169.317 91.4435 167.576C91.7804 166.17 92.4115 164.539 92.4242 163.105Z" fill="black"/>
<path d="M85.9039 180.257C87.0987 178.46 87.9547 176.363 89.0022 174.467C89.1721 174.16 89.545 173.316 89.812 173.14C89.9081 173.076 90.0271 173.057 90.1345 173.015L90.3357 173.113C91.5334 173.653 95.0895 172.639 95.6366 174.018C95.8046 174.441 95.6746 174.833 95.4795 175.213C94.7151 175.75 93.5921 175.456 92.7027 175.299L91.9599 175.156C92.2807 175.465 92.6044 175.788 92.9678 176.047C93.8156 176.65 97.3195 178.478 97.3068 179.484C97.302 179.864 97.159 180.15 96.8721 180.398C96.6407 180.598 96.4431 180.641 96.1495 180.695C95.5367 180.548 94.9167 179.856 94.4017 179.465C93.4244 178.722 92.1303 177.721 91.0429 177.196L90.8213 177.563C90.9593 177.859 90.8502 177.738 91.1381 177.896C91.9743 178.355 92.7395 179.023 93.5392 179.552C94.1441 179.951 95.4151 180.549 95.8491 181.066C95.9433 181.178 95.9635 181.336 96.0207 181.47C95.9368 182.019 95.7705 182.461 95.3062 182.802C95.1029 182.951 94.896 183.028 94.643 182.987L94.2871 182.906L94.048 182.912L94.0883 183.066C94.1599 183.45 94.004 183.766 93.7759 184.063C93.5709 184.331 93.2489 184.53 92.9053 184.543C92.1303 184.573 91.1695 183.76 90.5608 183.35L88.8755 182.248L85.9039 180.257Z" fill="white"/>
<path d="M139.767 172.342L141.27 174.44L144.891 180.296C143.754 180.987 142.419 181.683 141.398 182.533C140.289 183.314 139.018 184.369 137.719 184.781C137.325 184.906 137.009 184.846 136.662 184.629C136.22 184.354 135.958 183.993 135.845 183.49C137.031 182.389 138.701 181.712 139.706 180.397C138.622 180.835 137.695 181.726 136.736 182.388C136.115 182.817 135.744 183.082 134.972 182.938C134.663 182.745 134.481 182.593 134.337 182.248C134.251 182.041 134.167 181.61 134.292 181.408C134.485 181.094 134.893 180.863 135.185 180.644C136.092 179.965 138.159 178.7 138.546 177.686L138.387 177.505L135.781 179.456C135.139 179.926 134.52 180.43 133.758 180.688C133.357 180.663 133.217 180.634 132.899 180.389C132.681 179.958 132.692 179.86 132.716 179.397C133.163 178.728 133.901 178.295 134.539 177.817L137.63 175.449C136.835 175.355 135.532 175.644 134.876 175.193C134.608 175.01 134.369 174.709 134.33 174.381C134.297 174.111 134.338 173.865 134.493 173.648C135.153 172.726 138.607 172.528 139.767 172.342Z" fill="white"/>
<path d="M196.862 95.4199C197.745 95.7316 198.574 96.1281 199.481 96.3794C202.309 97.1641 205.33 96.9322 208 95.6737L208.172 95.5898C208.477 99.1442 208.346 103.571 211.275 106.126C211.643 106.447 212.086 106.781 212.547 106.95L219.048 108.957L219.005 116.204C219.007 117.631 218.881 119.207 219.095 120.612C219.463 123.018 220.555 124.484 222.012 126.318L221.5 126C221.223 125.392 220.872 125.542 220.5 125C220.058 124.355 218.505 123.509 219 122.5C217.505 121.009 219.003 118.377 219.005 116.204L219.048 108.957C225.734 111.067 231.903 115.406 237.102 119.999C242.598 124.856 247.819 130.526 251.255 137.056C252.306 139.053 253.252 141.4 253.571 143.649C253.987 146.586 253.444 149.629 252.552 152.427C251.615 155.367 249.978 158.079 248.163 160.555C245.523 164.156 242.497 167.311 239.01 170.095C237.286 171.471 235.458 172.853 233.486 173.855C231.622 174.802 230.171 174.947 228.14 174.379C227.462 174.189 226.778 173.882 226.095 173.737L226.126 173.85C226.535 175.303 227.287 176.683 227.711 178.158C228.789 181.903 229.453 186.003 229.513 189.904C229.544 191.882 229.364 193.83 229.27 195.802C227.669 196.045 226.053 196.173 224.484 196.595L207.765 199.372L203.583 199.988C203.366 200.015 203.183 200 202.966 199.974C202.682 199.328 202.713 198.281 202.629 197.563L201.879 191.177C201.765 190.069 201.774 188.86 201.527 187.779C201.319 187.635 201.176 187.605 200.927 187.569C200.521 188.297 200.607 190.012 200.5 190.897C200.145 193.826 199.855 196.813 199.287 199.709L198.875 199.773L196.727 199.472L179.994 196.704L179.989 196.688L174.656 195.775C174.644 195.295 174.722 194.463 174.482 194.049L174.382 193.892C174.114 194.73 174.019 195.561 173.885 196.426C173.822 196.828 173.789 197.352 173.542 197.691C173.36 197.942 173.184 198.097 172.868 198.136C172.534 198.177 172.153 198.106 171.907 197.861C171.391 197.346 171.608 196.371 171.667 195.716L171.426 195.573L171.316 195.674C170.959 196.112 170.957 197.135 171.034 197.691C171.19 198.822 172.623 199.724 173.627 200.054C174.055 200.195 174.579 200.261 174.94 200.539C174.957 200.684 174.999 200.905 174.972 201.056C174.898 201.475 174.595 201.851 174.248 202.085C173.319 202.71 172.157 202.611 171.116 202.372C169.774 202.063 168.869 201.43 168.153 200.229C167.275 198.756 167.197 196.948 167.48 195.296C167.748 193.735 168.547 192.899 169.825 192.081C169.868 192.053 170.21 191.863 170.229 191.827C170.383 191.528 170.43 190.757 170.498 190.397L171.625 183.379L174.973 160.895C175.616 156.651 175.281 152.257 175.24 147.967L175.097 129.019L175.059 124.124C175.047 122.391 175.022 120.683 175.445 118.99C175.642 118.198 175.876 117.429 176.222 116.688C178.086 112.696 181.662 110.409 185.675 108.974L185.685 120.981C185.5 120 185.501 119.104 185.5 118V111.5C185.498 110.838 185.247 110.097 185.5 109.5L185.591 109.005L186.345 108.788L190.309 107.682C190.946 107.534 191.71 107.305 192.359 107.445L192.483 107.47C193.292 107.576 194.408 107.255 195.056 106.775C196.109 105.993 196.406 104.459 196.638 103.25C197.112 100.775 196.864 97.947 196.862 95.4199Z" fill="white"/>
<path d="M178.059 175.271C178.357 173.535 178.845 171.847 179.256 170.137L180.994 162.566C181.261 161.377 181.641 160.14 181.81 158.941C182.178 156.327 182.15 153.535 182.326 150.891L183.291 133.525L189.517 156.773C188.38 158.067 187.453 159.661 186.514 161.104L181.669 168.829L179.873 172.059C179.432 172.918 178.792 174.683 178.059 175.271Z" fill="#6FDE6D"/>
<path d="M196.861 95.4199C197.745 95.7316 198.574 96.1281 199.481 96.3794C202.309 97.1641 205.33 96.9322 208 95.6737L208.172 95.5898C208.477 99.1442 208.346 103.571 211.275 106.126C211.643 106.447 212.086 106.781 212.547 106.95C212.482 107.019 212.388 107.068 212.351 107.155C212.318 107.232 212.349 107.591 212.349 107.68L212.338 109.444C212.325 110.924 212.339 112.434 212.01 113.883C211.397 116.588 209.841 118.63 207.533 120.128C205.164 121.665 202.29 122.097 199.54 121.496C197.256 120.997 195.096 119.498 193.861 117.506C192.031 114.552 192.259 110.785 192.359 107.445L192.483 107.47C193.292 107.576 194.408 107.255 195.056 106.775C196.109 105.993 196.406 104.459 196.638 103.25C197.112 100.775 196.864 97.947 196.861 95.4199Z" fill="#BFBEBC"/>
<path d="M204.851 156.796L211.981 156.783C212.962 156.785 214.19 156.935 215.126 156.733L221.105 133.695L222.174 129.221C222.441 128.118 222.781 126.9 222.838 125.766C227.532 128.813 232.09 131.834 236.53 135.259C239.001 137.165 242.067 139.441 243.807 142.06C244.245 142.718 244.722 143.558 244.866 144.339L244.917 144.703L244.948 144.902C245.126 146.197 244.854 147.578 244.55 148.835C243.302 153.993 240.283 159.041 237.027 163.187C235.536 165.086 231.45 169.574 229.041 169.885C228.181 169.996 227.461 169.709 226.818 169.15C226.064 168.496 225.359 167.629 224.533 167.079C224.024 166.739 223.46 166.582 222.907 166.338C222.885 165.931 222.459 165.407 222.238 165.058C221.387 163.707 220.496 162.375 219.499 161.127C218.577 159.972 217.481 158.908 216.407 157.895C216.139 157.642 215.669 157.111 215.343 156.955C214.937 156.761 213.773 156.875 213.285 156.872L208.189 156.883C207.132 156.887 206.04 156.946 204.99 156.815L204.851 156.796Z" fill="#6FDE6D"/>
<path d="M189.517 156.773L204.851 156.796L204.99 156.815C206.04 156.946 207.132 156.887 208.189 156.883L213.285 156.872C213.773 156.875 214.937 156.761 215.343 156.955C215.669 157.111 216.139 157.642 216.407 157.895C217.481 158.908 218.577 159.972 219.499 161.127C220.496 162.375 221.387 163.707 222.238 165.058C222.459 165.407 222.885 165.931 222.907 166.338C221.474 166.044 218.757 165.399 217.415 166.189C217.048 166.404 216.924 166.548 216.764 166.932C216.81 167.094 216.791 167.204 216.953 167.29C217.424 167.538 218.214 167.501 218.748 167.555C219.548 167.637 220.322 167.807 221.11 167.957C221.933 168.115 222.996 168.171 223.616 168.794L223.572 168.974C221.624 169.093 219.365 169.144 217.939 170.691C217.391 171.285 217.066 172.054 217.123 172.868C217.145 173.177 217.272 173.294 217.446 173.542L217.806 173.689C218.343 173.365 218.719 172.871 219.187 172.459C220.548 171.259 222.414 170.898 224.174 170.968L224.356 171.197L224.204 171.377L224.029 171.392C222.537 171.533 220.835 172.201 219.849 173.368C219.485 173.799 219.001 174.46 219.072 175.06C219.101 175.3 219.06 175.229 219.257 175.371C219.678 175.674 220.253 175.668 220.75 175.669C221.224 175.441 221.485 174.944 221.848 174.579C223.035 173.384 224.582 173.277 226.095 173.737L226.126 173.85C226.535 175.303 227.287 176.683 227.711 178.158C228.789 181.903 229.453 186.003 229.513 189.904C229.544 191.882 229.364 193.83 229.27 195.802C227.669 196.045 226.053 196.173 224.484 196.595L207.765 199.372L203.583 199.988C203.366 200.015 203.183 200 202.966 199.974C202.682 199.328 202.712 198.281 202.629 197.563L201.879 191.177C201.764 190.069 201.774 188.86 201.527 187.779C201.319 187.635 201.176 187.605 200.927 187.569C200.521 188.297 200.607 190.012 200.5 190.897C200.145 193.826 199.855 196.813 199.287 199.709L198.875 199.773L196.727 199.472L179.994 196.704L179.989 196.688L174.656 195.775C174.644 195.295 174.722 194.463 174.482 194.049L174.382 193.892L178.059 175.271C178.792 174.683 179.432 172.918 179.872 172.059L181.669 168.829L186.514 161.104C187.453 159.661 188.379 158.067 189.517 156.773Z" fill="#FB7A4B"/>
</svg>
