<svg width="317" height="317" viewBox="0 0 317 317" fill="none" xmlns="http://www.w3.org/2000/svg">
<path d="M0 158.5C0 70.9629 70.9629 0 158.5 0C246.037 0 317 70.9629 317 158.5C317 246.037 246.037 317 158.5 317C70.9629 317 0 246.037 0 158.5Z" fill="#6FDE6D"/>
<path d="M140.486 63.0505C141.258 63.5473 141.943 64.131 142.171 65.065C142.385 65.9438 142.16 66.8782 141.678 67.6312C141.416 68.0402 141.038 68.4024 140.678 68.7226C140.508 67.9393 140.858 67.0922 140.839 66.2987C140.813 65.2264 140.542 64.1361 140.486 63.0505Z" fill="white"/>
<path d="M114.859 69.4314L114.741 69.3896C113.79 69.0053 112.956 68.3126 112.593 67.3306C112.338 66.6425 112.394 65.6646 112.687 65.0043C113.211 63.8196 114.137 63.336 115.29 62.9202C115.348 63.4547 115.606 64.5639 115.483 65.0627C115.41 65.3559 114.915 65.863 114.715 66.112L114.146 66.8143C114.352 67.4267 115.058 68.8768 114.859 69.4314Z" fill="white"/>
<path d="M138.018 63.4025C138.287 63.3368 138.379 62.777 138.688 62.5491C139.37 62.6275 139.86 62.779 140.486 63.0501C140.542 64.1357 140.813 65.226 140.839 66.2983C140.858 67.0918 140.508 67.9389 140.678 68.7222C139.954 69.271 139.244 69.4692 138.366 69.6101C138.583 68.1258 138.604 66.8353 138.396 65.3478C138.339 64.9383 138.316 64.3771 138.103 64.0165C137.959 63.7745 138.008 63.6797 138.018 63.4025Z" fill="#EBEBF5"/>
<path d="M229.661 261.591L233.211 261.644C233.41 262.072 233.289 262.581 233.255 263.038C233.185 263.961 233.017 265.259 233.203 266.149C233.199 266.684 233.362 267.68 232.982 268.045C232.657 268.357 232.097 268.793 231.626 268.78L230.831 268.623C230.508 268.187 230.545 267.303 230.482 266.753C230.378 265.052 230.087 263.242 229.661 261.591Z" fill="white"/>
<path d="M229.178 271.027L244.875 271.051C245.02 271.441 244.953 271.968 244.953 272.385L229.094 272.404L229.178 271.027Z" fill="white"/>
<path d="M197.88 261.338L202.489 261.381C202.016 263.074 202.025 264.923 201.77 266.66L201.747 268.487L199.366 268.414C199.355 267.88 199.394 267.28 199.292 266.758C199.251 266.55 199.041 266.505 198.869 266.402C198.604 264.727 198.418 262.95 197.88 261.338Z" fill="white"/>
<path d="M203.327 270.837L203.436 272.428L187.862 272.362C187.861 271.874 187.766 271.362 188.037 270.95L188.187 270.883L203.327 270.837Z" fill="white"/>
<path d="M198.868 266.402C199.04 266.505 199.25 266.55 199.291 266.758C199.394 267.28 199.354 267.88 199.366 268.413L201.746 268.487L201.77 266.66C202.291 266.67 202.831 266.652 203.348 266.718L203.327 270.837L188.186 270.882L188.012 270.763C188.316 270.227 194.79 269.014 195.914 268.472L195.519 267.847L195.389 267.673C195.581 267.492 195.65 267.406 195.909 267.331C195.753 267.591 195.771 267.459 195.809 267.716L196.49 267.989L196.641 267.909C196.572 267.553 196.348 267.351 196.116 267.088L196.003 266.962L196.101 266.667L196.412 266.602L197.246 267.508C197.405 267.225 197.244 266.896 197.176 266.584L197.418 266.557C197.621 266.804 197.782 266.995 198.047 267.179C198.176 267.037 198.237 266.94 198.316 266.759L198.388 266.584L198.868 266.402Z" fill="black"/>
<path d="M233.203 266.149L233.306 266.296C233.48 266.554 233.553 266.86 233.638 267.156L233.833 267.166L234.455 266.389L234.644 266.372C234.77 266.67 234.894 266.949 234.974 267.263C235.577 267.096 235.494 266.067 236.192 266.053C236.196 266.448 235.852 266.823 235.728 267.213L235.932 267.362C236.19 266.969 236.37 266.465 236.782 266.241L236.967 266.333C236.801 266.779 236.556 267.191 236.328 267.608C238.012 268.046 239.476 268.699 241.089 269.321C242.29 269.785 243.538 270.164 244.705 270.708C244.762 270.816 244.84 270.934 244.875 271.051L229.179 271.027L229.322 266.899C229.59 266.658 230.117 266.752 230.482 266.754C230.545 267.303 230.508 268.187 230.831 268.623L231.626 268.78C232.097 268.793 232.657 268.357 232.982 268.045C233.362 267.681 233.199 266.684 233.203 266.149Z" fill="black"/>
<path d="M89.1901 257.805L96.8922 257.858C96.9702 258.537 96.8037 259.301 96.7406 259.982L96.3605 264.184L94.4198 264.223L90.9211 264.251C90.1265 264.26 89.3536 264.213 88.5887 264.462C88.5117 263.569 88.7092 262.562 88.802 261.665L89.1901 257.805Z" fill="black"/>
<path d="M156.223 257.595L164.292 257.58L164.622 262.871C164.645 263.144 164.831 264.105 164.749 264.321C164.724 264.387 164.625 264.503 164.566 264.573C162.381 264.31 160.013 264.485 157.806 264.481L156.223 257.595Z" fill="black"/>
<path d="M157.806 264.481C160.013 264.484 162.381 264.309 164.566 264.572C165.763 265.195 167.186 265.539 168.454 266.01L179.577 270.027C180.513 270.365 182.028 270.651 182.762 271.238C182.763 271.627 182.837 272.063 182.63 272.394L156.562 272.273L157.806 264.481Z" fill="white"/>
<path d="M94.4198 264.223L96.349 264.241L97.1617 272.288L69.3936 272.304C69.1908 272.009 69.2301 271.973 69.263 271.61C70.4092 271.054 71.776 270.783 72.9878 270.357L82.6126 266.916C84.5657 266.213 86.7451 265.581 88.5566 264.578L88.5888 264.461C89.3536 264.213 90.1266 264.259 90.9211 264.251L94.4198 264.223Z" fill="white"/>
<path d="M115.868 62.8891L115.859 54.0081C115.931 53.1632 116.338 52.44 116.846 51.7794C119.578 48.2297 125.044 48.4336 129.083 47.9779C130.891 47.7739 132.701 47.4819 134.45 46.9691C136.605 46.3371 138.104 45.4034 139.827 44C140.313 46.1279 139.86 47.9735 139.273 50.0233L139.683 49.7885C140.688 49.2296 141.4 48.3924 142.181 47.5649C142.717 49.8515 142.881 52.2922 141.64 54.3947C140.727 55.9417 139.444 56.7336 137.785 57.2998C133.247 58.3162 127.729 58.2405 123.283 56.7867C122.558 56.5498 121.895 56.2646 121.223 55.9026C120.839 55.6957 120.315 55.2977 119.905 55.2421L118.067 61.3237C117.715 62.5574 117.198 63.9221 117.225 65.2152C116.588 64.4951 116.698 63.5771 115.868 62.8891Z" fill="black"/>
<path d="M117.225 65.2154C117.199 63.9223 117.716 62.5575 118.068 61.3238L119.905 55.2422C120.316 55.2978 120.84 55.6958 121.224 55.9028C121.896 56.2647 122.559 56.5499 123.283 56.7869C127.729 58.2407 133.247 58.3164 137.786 57.3C138.156 57.7741 138.007 62.4436 138.018 63.4026C138.008 63.6798 137.96 63.7746 138.103 64.0166C138.316 64.3773 138.34 64.9384 138.397 65.3479C138.604 66.8354 138.584 68.126 138.366 69.6102L138.379 69.7408C138.054 70.5431 137.811 71.3784 137.429 72.1569C136.374 74.3046 134.693 76.0366 132.489 76.9994C130.236 77.9842 127.606 78.0058 125.34 77.0741C122.981 76.104 121.04 74.6693 119.514 72.6114C118.893 71.5769 118.261 70.6498 117.777 69.5353L117.225 65.2154Z" fill="white"/>
<path d="M133.282 60.5516L134.098 60.5216C134.844 60.5538 135.403 60.8086 135.921 61.334L135.795 61.4502C135.25 61.4354 134.754 61.2626 134.235 61.1084C133.768 61.039 133.382 60.9706 132.935 61.1695L132.609 61.3179C132.344 61.4203 132.045 61.5149 131.771 61.4103V61.1972C132.249 60.8738 132.739 60.7266 133.282 60.5516Z" fill="black"/>
<path d="M122.655 60.5548L123.471 60.5249C124.217 60.5571 124.776 60.8118 125.294 61.3373L125.169 61.4535C124.623 61.4386 124.127 61.2658 123.608 61.1117C123.141 61.0422 122.755 60.9738 122.308 61.1728L121.982 61.3212C121.718 61.4235 121.418 61.5181 121.144 61.4135V61.2004C121.622 60.877 122.112 60.7298 122.655 60.5548Z" fill="black"/>
<path d="M122.963 64.0733C123.275 63.9895 123.66 63.9768 123.977 64.0392C124.33 64.109 124.656 64.4576 124.839 64.761C125.041 65.0958 125.031 65.5588 124.928 65.9258C124.789 66.4195 124.482 66.7003 124.056 66.9301C123.753 67.0035 123.374 67.0334 123.071 66.9485C122.702 66.845 122.3 66.5215 122.139 66.1562C121.964 65.7571 121.952 65.2355 122.116 64.8287C122.269 64.4489 122.629 64.2485 122.963 64.0733Z" fill="black"/>
<path d="M133.18 64C133.426 64.0008 133.701 64.0295 133.937 64.1061C134.308 64.2272 134.731 64.5408 134.908 64.915C135.074 65.2637 134.991 65.6034 134.852 65.9428C134.628 66.4937 134.266 66.7072 133.765 66.9352C133.454 66.9819 133.114 67.0515 132.809 66.9402C132.536 66.8407 132.303 66.5838 132.183 66.311C131.992 65.879 131.917 65.2745 132.122 64.829C132.343 64.346 132.726 64.1713 133.18 64Z" fill="black"/>
<path d="M115.868 62.8893C116.699 63.5772 116.588 64.4952 117.225 65.2153L117.777 69.5352C118.261 70.6497 118.893 71.5769 119.514 72.6114C121.04 74.6693 122.981 76.104 125.34 77.0741C127.606 78.0058 130.236 77.9841 132.489 76.9994C134.693 76.0366 136.374 74.3046 137.429 72.1569C137.811 71.3784 138.054 70.5431 138.379 69.7407C138.635 71.4591 138.397 82.9658 138.764 83.5239L138.693 83.7905C139.294 84.1724 143.435 84.7441 144.367 84.8962L143.539 85.6096C142.436 86.7469 141.21 87.7649 139.814 88.5312C133.991 91.7281 126.279 92.1964 119.981 90.303C117.606 89.5886 115.272 88.5358 113.246 87.0968C112.32 86.4391 111.532 85.8042 110.983 84.7825L115.431 83.9369C115.905 83.8502 116.538 83.8748 116.953 83.6336L116.871 83.2862L116.945 83.081C117.099 82.293 116.907 81.0967 116.899 80.2692L116.877 72.4627C116.882 71.8968 117.106 70.0141 116.769 69.6421C116.044 69.7131 115.538 69.6982 114.859 69.4314C115.058 68.8768 114.352 67.4267 114.146 66.8143L114.715 66.112C114.915 65.863 115.41 65.356 115.483 65.0627C115.607 64.5639 115.349 63.4547 115.29 62.9202L115.868 62.8893Z" fill="#EBEBF5"/>
<path d="M119.514 72.6117C121.04 74.6696 122.981 76.1043 125.34 77.0744C127.606 78.0061 130.236 77.9844 132.489 76.9997C134.693 76.0369 136.374 74.3049 137.429 72.1572C137.811 71.3787 138.054 70.5434 138.379 69.741C138.635 71.4594 138.397 82.9661 138.764 83.5242L138.693 83.7908C139.294 84.1726 143.435 84.7443 144.368 84.8965L143.539 85.6098C141.518 85.8352 139.587 85.8576 137.564 85.6579C132.46 85.1541 126.025 82.0022 122.782 77.9988C121.785 76.7686 120.858 75.4921 120.09 74.1037C119.821 73.616 119.527 73.1814 119.514 72.6117Z" fill="#B4B3B3"/>
<path d="M246.885 118.914C247.299 119.077 247.633 119.446 247.961 119.742L250.184 121.854C255.895 127.501 261.594 133.777 265.177 141.042C263.314 143.801 261.418 146.403 259.203 148.893C254.534 154.142 249.165 158.863 243.967 163.582C242.495 164.919 241.062 166.351 239.486 167.566C239.036 167.913 238.415 168.445 237.851 168.538C237.361 168.618 236.877 168.584 236.427 168.379C236.137 168.275 235.804 168.395 235.509 168.471C234.855 168.64 234.088 168.822 233.55 169.251C233.191 169.538 232.91 170.084 232.493 170.252C232.436 170.019 232.421 169.88 232.484 169.642C232.757 168.603 234.311 167.809 235.149 167.288C233.821 167.452 232.535 167.636 231.447 168.484L230.682 169.067L230.484 168.909C230.512 168.756 230.532 168.626 230.615 168.491C231.52 167.008 233.22 166.638 234.76 166.21L234.566 166.199C233.092 166.132 231.359 166.342 230.245 167.381C230.033 167.579 229.971 167.656 229.697 167.766C229.554 167.475 229.565 167.442 229.613 167.118C229.988 166.658 230.479 166.352 230.96 166.013C232.243 165.486 233.249 165.415 234.634 165.37C232.88 164.841 232.111 164.72 230.413 165.589L230.116 165.776L229.932 165.724C229.985 165.442 230.078 165.293 230.284 165.101C231.422 164.042 232.682 163.993 234.153 164.035C234.671 164.14 235.267 164.201 235.739 164.451C236.317 164.757 236.919 165.388 237.446 165.801L241.108 160.337C242.528 158.301 254.969 140.85 255.664 140.477C255.971 140.313 256.894 140.268 257.284 140.198C256.41 140.089 255.41 140.046 254.592 139.711C253.46 139.247 252.352 138.395 251.335 137.705C246.993 134.757 243.026 131.34 239.018 127.962C240.403 126.859 241.712 125.773 242.889 124.44C243.261 124.123 243.577 123.68 243.894 123.303C245 121.989 246.093 120.439 246.885 118.914Z" fill="white"/>
<path d="M233.051 122.722L239.018 127.962C243.026 131.339 246.993 134.757 251.335 137.705C252.351 138.395 253.46 139.247 254.591 139.711C255.409 140.046 256.41 140.089 257.284 140.198C256.893 140.268 255.971 140.313 255.664 140.477C254.969 140.85 242.528 158.301 241.108 160.336L237.446 165.801C236.919 165.388 236.316 164.757 235.739 164.451C235.267 164.201 234.671 164.14 234.152 164.035C233.881 162.906 233.485 161.825 232.631 161.003C231.185 159.609 229.484 159.701 227.626 159.725C227.58 159.65 227.504 159.586 227.486 159.499C227.4 159.076 227.674 158.079 227.747 157.636L228.408 153.337L231.527 130.457C232.189 129.682 232.721 128.649 232.936 127.658L232.984 127.43C233.316 125.927 233.271 124.487 232.908 122.998L233.051 122.722Z" fill="#6FDE6D"/>
<path d="M141.693 210.505L160.642 208.782L164.292 257.58L156.224 257.595C155.915 256.926 155.349 256.286 154.93 255.676L152.542 252.053C147.073 243.227 141.822 233.144 142.412 222.442C142.571 219.559 143.276 216.617 143.933 213.814C143.085 212.794 142.401 211.624 141.693 210.505Z" fill="white"/>
<path d="M94.7509 208.901L113.676 210.719L111.521 213.876C112.231 217.106 113.019 220.464 113.038 223.784C113.048 225.5 112.768 227.234 112.454 228.917C111.234 235.446 108.178 241.646 104.63 247.216C103.781 248.548 97.989 257.481 96.8924 257.857L89.1902 257.804L94.7509 208.901Z" fill="white"/>
<path d="M209.411 103.887L203.923 103.864C199.357 103.711 194.508 103.279 191.216 99.7073C189.487 97.8319 188.155 95.4115 188.326 92.7876C188.415 91.4304 188.979 90.1142 190.02 89.2153C190.918 88.4393 191.784 88.2026 192.946 88.307L194.132 88.4489C193.637 86.9576 193.425 85.531 194.169 84.0623C194.739 82.9368 195.788 82.1661 196.978 81.7966C198.16 81.4297 199.64 81.6206 200.84 81.818C200.755 80.3793 200.642 78.836 200.809 77.402C201.092 74.9781 202.209 72.4536 203.816 70.625C205.569 68.6297 207.777 67.2566 210.434 66.9176L210.67 66.8856C213.746 66.4958 216.989 67.6289 219.389 69.5412L221.372 71.4321L221.528 71.3859C222.569 71.0888 223.69 71.0159 224.668 71.5541C226.266 72.4335 227.312 74.212 227.785 75.9304C228.388 78.1226 228.408 80.6716 227.983 82.894C230.086 81.907 232.406 81.2304 234.698 82.0685C235.884 82.5024 237.156 83.4277 237.701 84.6079C238.291 85.8869 238.206 87.484 237.869 88.8257C239.313 88.8224 240.148 88.8961 241.217 89.9721C242.28 91.0428 242.664 92.5024 242.638 93.9771C242.59 96.6218 241.194 99.129 239.305 100.911C235.93 104.095 231.964 103.924 227.652 103.909L220.818 103.908C220.563 101.833 220.757 99.4854 220.748 97.3789C218.028 98.8649 214.574 99.286 211.582 98.4084C210.892 98.2059 210.238 97.8689 209.622 97.5042C209.601 98.3493 209.482 99.3114 209.567 100.145L209.411 103.887Z" fill="black"/>
<path d="M200.019 87.6545C199.771 86.9183 199.65 86.1864 199.8 85.4099C199.945 84.6579 200.375 83.9063 201.039 83.4996C201.531 83.199 202.085 83.1206 202.638 83.2851C203.476 83.5341 203.798 84.3369 204.17 85.0482L204.36 85.0618L204.346 85.1717C204.226 86.1537 204.296 87.1494 204.12 88.1231L204.004 88.0896L201.15 87.5773C200.701 87.4948 200.452 87.4649 200.019 87.6545Z" fill="url(#paint0_linear_13_643)"/>
<path d="M204.359 85.062L204.943 81.8247C207.36 81.8916 209.323 81.214 211.497 80.2046C213.344 79.3469 215.006 78.3937 216.502 76.9947C217.388 76.1672 218.115 75.1948 218.803 74.2025C219.888 74.6233 221.159 75.2293 221.923 76.1363C222.433 76.7429 222.793 77.4668 223.267 78.1009C223.891 78.9362 224.672 79.685 225.364 80.466C225.757 80.9089 226.019 85.5062 226.18 86.4645L226.966 85.7997C227.25 85.1516 227.608 83.3934 228.041 83.0519C228.738 83.0546 229.361 83.2664 229.865 83.7662C230.389 84.2863 230.704 85.0691 230.673 85.8053C230.607 87.3984 229.894 88.6736 228.724 89.7142C228.399 90.0034 228.07 90.2353 227.663 90.3966C227.516 90.4547 226.141 90.8189 226.104 90.8669C225.915 91.1069 225.833 92.0425 225.683 92.4002C224.709 94.7255 222.81 96.1021 220.748 97.3793C218.028 98.8653 214.575 99.2864 211.582 98.4088C210.892 98.2063 210.239 97.8693 209.622 97.5046C209.498 97.4128 209.357 97.3491 209.222 97.2749C206.476 95.7605 205.168 93.5459 204.317 90.6058C203.941 90.6159 203.545 90.634 203.179 90.5319C201.723 90.1264 200.683 88.9445 200.019 87.6547C200.452 87.4651 200.701 87.495 201.15 87.5775L204.004 88.0899L204.12 88.1233C204.295 87.1497 204.226 86.1539 204.345 85.1719L204.359 85.062Z" fill="white"/>
<path d="M220.084 79.6518C220.737 79.6576 221.397 79.7816 222.005 80.0248C222.501 80.2233 223.197 80.5734 223.401 81.0868L223.087 81.3383C222.551 81.4339 221.992 80.9618 221.51 80.6962C221.34 80.6366 221.178 80.5779 220.999 80.552C220.166 80.4318 219.76 80.5377 219.108 81.0566L218.986 81.1557C218.626 81.1967 218.608 81.2025 218.295 81.0229L218.271 80.7095C218.623 80.057 219.423 79.8764 220.084 79.6518Z" fill="black"/>
<path d="M226.966 85.7994L227.193 85.8577L229.075 86.1409C229.189 86.397 229.201 86.5932 229.212 86.8716C228.496 87.8264 227.446 87.9632 226.346 88.2107L226.18 86.4641L226.966 85.7994Z" fill="#EBEBF5"/>
<path d="M220.412 82.973C220.595 82.9463 220.762 82.9307 220.945 82.9707C221.385 83.0666 221.747 83.3473 221.962 83.7437C222.185 84.1551 222.216 84.7704 222.047 85.2055C221.825 85.7782 221.359 86.1122 220.81 86.3265C220.552 86.3741 220.263 86.3889 220.019 86.277C219.59 86.0795 219.323 85.5363 219.2 85.1051C219.055 84.5988 219.122 84.054 219.395 83.6018C219.644 83.1878 219.962 83.0806 220.412 82.973Z" fill="black"/>
<path d="M209.045 83.0991C209.288 83.0659 209.523 83.0211 209.764 83.0926C210.218 83.2266 210.641 83.583 210.828 84.0187C211.019 84.4626 210.999 85.0648 210.809 85.5062C210.589 86.0173 210.233 86.2366 209.743 86.4489C209.479 86.51 209.282 86.5339 209.025 86.4398C208.582 86.2774 208.22 85.8792 208.036 85.4514C207.845 85.0054 207.831 84.4344 208.033 83.9877C208.249 83.5081 208.575 83.2903 209.045 83.0991Z" fill="black"/>
<path d="M209.622 97.5043C210.239 97.869 210.893 98.2061 211.583 98.4085C214.575 99.2861 218.028 98.8651 220.748 97.3791C220.757 99.4856 220.564 101.834 220.819 103.908C220.812 104.455 220.841 105.026 220.772 105.569L220.766 109.012L220.789 108.897C220.916 108.203 220.886 107.498 220.88 106.796C223.561 106.819 226.66 106.564 229.268 107.119C230.636 107.41 231.885 107.976 233.147 108.567C237.208 110.469 240.95 113.351 244.289 116.318C245.117 117.054 246.229 117.897 246.832 118.821L246.885 118.914C246.094 120.439 245 121.989 243.894 123.303C243.577 123.68 243.261 124.122 242.889 124.44C241.712 125.773 240.403 126.859 239.019 127.962L233.052 122.722L232.908 122.998C233.272 124.487 233.317 125.927 232.984 127.43L232.936 127.658C232.722 128.649 232.19 129.682 231.528 130.457L228.408 153.336L227.747 157.636C227.674 158.079 227.401 159.076 227.487 159.499C227.504 159.586 227.58 159.649 227.627 159.725L202.369 159.697L202.591 159.557C202.972 157.71 202.486 155.255 202.242 153.387C201.494 147.66 200.432 141.982 199.12 136.359L198.251 132.735C198.026 131.861 197.629 130.854 197.725 129.951C197.565 129.842 197.437 129.723 197.295 129.591C197.769 122.399 194.508 114.799 191.217 108.509C192.177 108.048 193.23 107.767 194.247 107.459C195.486 107.082 196.688 106.692 197.977 106.531C199.397 106.354 200.87 106.422 202.299 106.423L209.312 106.439L209.411 103.887L209.568 100.145C209.482 99.3115 209.601 98.3494 209.622 97.5043Z" fill="#FB7A4B"/>
<path d="M209.622 97.5043C210.239 97.869 210.892 98.2061 211.582 98.4085C214.575 99.2861 218.028 98.8651 220.748 97.3791C220.757 99.4856 220.563 101.834 220.818 103.908C220.812 104.455 220.841 105.026 220.772 105.569L220.766 109.012C220.628 110.895 220.128 112.3 218.758 113.642C217.728 114.65 216.163 115.152 214.739 115.138C213.138 115.122 211.647 114.556 210.524 113.391C208.691 111.49 209.262 108.835 209.312 106.439L209.411 103.887L209.567 100.145C209.482 99.3115 209.601 98.3494 209.622 97.5043Z" fill="white"/>
<path d="M209.622 97.5043C210.239 97.869 210.892 98.2061 211.582 98.4085C214.575 99.2861 218.028 98.8651 220.748 97.3791C220.757 99.4856 220.563 101.834 220.818 103.908C220.812 104.455 220.84 105.026 220.772 105.569L220.734 103.98C218.905 104.301 216.418 104.446 214.671 103.739C213.426 103.235 212.228 102.298 211.161 101.487C210.638 101.09 210.16 100.397 209.567 100.145C209.482 99.3115 209.601 98.3494 209.622 97.5043Z" fill="#B4B3B3"/>
<path d="M187.792 103.074L191.217 108.509C194.507 114.799 197.769 122.399 197.295 129.591C197.437 129.723 197.565 129.842 197.725 129.951C197.628 130.854 198.026 131.861 198.251 132.735L199.12 136.359C200.432 141.982 201.494 147.66 202.242 153.386C202.486 155.255 202.972 157.709 202.59 159.557L202.369 159.697C201.79 160.1 201.379 160.644 200.877 161.132L198.248 163.586L198.614 163.73C197.654 163.711 196.523 163.997 195.783 164.646C195.63 164.78 195.625 164.8 195.523 164.943C195.911 165.153 196.108 165.197 196.545 165.213C196.901 165.227 197.265 165.353 197.652 165.367L197.495 165.474C198.809 166.137 199.736 167.058 200.748 168.105C201.066 168.435 201.335 168.826 201.686 169.119L201.361 169.396C200.923 169.342 200.746 169.02 200.437 168.718C198.744 167.066 197.549 165.884 195.029 166.154V166.245C195.546 166.238 196.165 166.194 196.66 166.348C197.539 166.621 198.462 167.482 199.118 168.113L200.498 169.497C200.252 169.76 200.136 169.717 199.787 169.758C198.558 168.843 197.654 167.505 196.156 166.977L196.013 166.926L195.72 166.832L199.39 169.748C198.985 169.862 198.644 169.872 198.264 169.674L195.728 167.947C194.969 167.404 193.814 168.32 192.867 168.172C190.671 167.828 179.961 155.916 178.245 153.547L178.178 153.454C175.44 155.056 172.603 156.624 169.715 157.931L166.617 159.367C166.277 159.514 165.284 159.876 165.066 160.143C164.933 160.306 164.805 160.795 164.714 161.009C164.468 161.588 164.2 161.976 163.72 162.397C162.04 163.868 160.302 163.88 158.2 163.715C156.743 163.207 154.428 163.359 153.339 162.077C153.132 161.833 152.94 161.489 152.874 161.174C152.768 160.661 152.908 159.98 152.964 159.462L153.383 155.611L153.332 155.46L153.905 151.077L154.076 149.896L154.118 149.501C154.158 149.295 154.233 149.175 154.227 148.958C154.175 147.215 154.315 145.457 154.39 143.716L154.728 135.662L154.916 130.246C154.932 129.786 154.85 128.939 154.976 128.524C155.028 128.355 155.539 127.884 155.672 127.725C156.133 127.17 156.54 126.573 156.937 125.971C158.26 123.965 159.289 121.868 160.18 119.641C161.292 120.726 162.515 121.774 163.811 122.636C165.333 122.142 166.78 121.382 168.219 120.687C170.842 119.42 173.462 118.093 175.894 116.484C179.161 114.323 182.265 111.767 184.77 108.741C186.185 107.034 187.346 105.278 187.792 103.074Z" fill="white"/>
<path d="M197.495 165.474C196.959 165.35 196.44 165.26 195.886 165.301C195.101 165.359 194.456 165.619 193.646 165.517C193.267 165.323 193.062 165.15 192.812 164.804C191.74 163.321 190.854 161.612 189.858 160.066L183.713 150.856C183.654 150.769 183.27 150.261 183.267 150.189C183.267 150.189 183.458 150.04 183.503 150.004L184.357 149.355C185.899 148.198 187.44 146.978 188.773 145.582C192.971 141.186 196.135 135.592 197.295 129.591C197.437 129.723 197.565 129.842 197.725 129.952C197.628 130.854 198.026 131.861 198.251 132.735L199.12 136.359C200.432 141.982 201.494 147.66 202.242 153.387C202.486 155.255 202.972 157.71 202.59 159.557L202.369 159.697C201.79 160.101 201.379 160.644 200.877 161.133L198.248 163.586L198.614 163.731C197.654 163.711 196.523 163.997 195.783 164.646C195.63 164.781 195.625 164.801 195.523 164.943C195.911 165.153 196.108 165.197 196.545 165.214C196.901 165.227 197.265 165.353 197.652 165.367L197.495 165.474Z" fill="#6FDE6D"/>
<path d="M160.18 119.641C161.292 120.726 162.515 121.775 163.812 122.636C166.979 124.917 170.12 126.85 173.858 128.066C175.132 128.48 176.485 128.682 177.737 129.133C176.834 129.084 175.809 128.684 174.947 128.743C172.881 130.782 171.26 133.05 170.061 135.701C168.591 138.952 167.72 142.462 166.223 145.718C164.943 148.5 163.176 150.902 161.542 153.469C158.988 152.247 156.685 150.449 154.351 148.853L154.026 151.097L153.383 155.612L153.332 155.461L153.905 151.078L154.076 149.897L154.119 149.501C154.158 149.295 154.233 149.175 154.227 148.959C154.175 147.216 154.315 145.458 154.391 143.716L154.729 135.662L154.916 130.247C154.932 129.786 154.851 128.94 154.976 128.525C155.028 128.355 155.54 127.885 155.672 127.725C156.133 127.17 156.54 126.573 156.937 125.971C158.26 123.965 159.289 121.868 160.18 119.641Z" fill="#6FDE6D"/>
<path d="M202.369 159.697L227.626 159.725C229.484 159.701 231.185 159.609 232.631 161.003C233.485 161.826 233.881 162.906 234.152 164.035C232.682 163.993 231.422 164.042 230.284 165.101C230.078 165.293 229.985 165.443 229.931 165.724L230.116 165.776L230.413 165.589C232.11 164.72 232.88 164.841 234.633 165.37C233.249 165.415 232.243 165.486 230.96 166.013C230.479 166.352 229.988 166.658 229.613 167.118C229.565 167.442 229.554 167.475 229.697 167.766C229.971 167.656 230.033 167.579 230.244 167.381C231.359 166.342 233.092 166.132 234.566 166.199L234.76 166.21C233.22 166.638 231.52 167.008 230.615 168.491C230.532 168.627 230.511 168.756 230.484 168.909L230.682 169.067L231.447 168.484C232.534 167.636 233.82 167.452 235.149 167.288C234.31 167.809 232.757 168.603 232.484 169.642C232.421 169.88 232.436 170.019 232.492 170.252C232.91 170.084 233.19 169.538 233.55 169.251C234.088 168.822 234.855 168.64 235.509 168.471C235.804 168.395 236.137 168.275 236.427 168.379C237.486 172.007 237.669 175.999 237.827 179.756C238.14 187.208 237.863 194.686 237.549 202.132L235.388 238.967L234.481 252.324L234.043 258.605C233.961 259.559 233.939 260.528 233.763 261.469C233.558 261.603 233.456 261.636 233.211 261.644L229.66 261.592C229.377 260.924 229.242 260.081 229.063 259.373L227.912 254.585L224.924 242.176C224.331 239.392 223.723 236.612 223.766 233.752C223.803 231.298 223.957 228.817 224.299 226.386L224.736 223.828C224.801 223.526 224.996 223.01 224.984 222.715C224.962 222.174 224.429 221.143 224.234 220.607C222.789 216.656 221.659 212.524 220.623 208.45C218.755 201.1 217.474 193.547 216.325 186.056C214.082 195.135 210.87 204.024 207.136 212.59L203.462 220.067L202.2 222.211C202.136 222.321 201.874 222.694 201.86 222.797C201.856 222.826 202.096 223.248 202.117 223.288L203.09 225.251C204.25 227.771 205.253 230.503 205.641 233.261C205.788 234.301 205.894 235.402 205.823 236.452C205.68 238.591 205.299 240.784 204.998 242.907L203.896 251.242L203.014 258.135C202.876 259.121 202.816 260.208 202.551 261.165L202.489 261.382L197.88 261.338C197.316 259.754 197.055 257.979 196.698 256.335L194.922 248.423C193.011 239.909 191.146 231.134 190.402 222.43C189.911 216.69 190.067 210.905 190.379 205.161L191.882 188.46L193.854 176.295L194.875 171.949C195.144 170.917 195.482 169.869 195.589 168.804C195.619 168.507 195.658 168.238 195.727 167.947L198.264 169.674C198.644 169.873 198.985 169.863 199.389 169.749L195.72 166.833L196.013 166.926L196.156 166.978C197.654 167.505 198.558 168.843 199.787 169.758C200.136 169.718 200.252 169.761 200.498 169.497L199.118 168.114C198.462 167.482 197.539 166.622 196.66 166.348C196.164 166.195 195.545 166.239 195.029 166.245V166.154C197.548 165.885 198.744 167.067 200.436 168.718C200.746 169.02 200.923 169.342 201.361 169.397L201.686 169.12C201.335 168.826 201.066 168.436 200.747 168.106C199.736 167.059 198.809 166.137 197.494 165.474L197.652 165.367C197.264 165.353 196.901 165.227 196.545 165.214C196.108 165.197 195.911 165.154 195.523 164.943C195.625 164.801 195.63 164.781 195.783 164.646C196.523 163.997 197.654 163.711 198.614 163.731L198.248 163.586L200.877 161.133C201.379 160.644 201.79 160.101 202.369 159.697Z" fill="black"/>
<path d="M197.652 165.367C197.265 165.353 196.902 165.227 196.545 165.214C196.108 165.197 195.911 165.154 195.523 164.944C195.625 164.801 195.63 164.781 195.784 164.646C196.524 163.997 197.654 163.711 198.614 163.731C199.665 163.826 201.308 164.025 201.98 164.93C202.099 165.091 202.177 165.287 202.248 165.473L202.138 165.85L202.009 165.894L201.879 165.754C201.454 165.303 200.886 164.713 200.226 164.665C200.107 164.656 200.044 164.679 199.936 164.706C199.34 164.449 197.785 164.174 197.145 164.353C198.319 164.771 199.29 165.013 200.254 165.858C200.648 166.204 200.976 166.686 201.441 166.926C201.723 167.014 202.014 167.551 202.181 167.799L202.072 167.911L201.667 167.707C201.71 168.021 201.727 168.297 201.714 168.617C200.643 167.147 199.433 165.884 197.652 165.367Z" fill="white"/>
<path d="M102.142 154.146C109.639 155.442 117.557 155.37 125.149 155.439L153.332 155.46L153.383 155.612L152.964 159.462C152.908 159.98 152.768 160.661 152.874 161.174C152.94 161.49 153.132 161.834 153.339 162.077C154.428 163.359 156.743 163.208 158.201 163.715L162.574 200.72L160.209 201.218L160.642 208.782L141.693 210.505C141.243 210.015 140.867 209.263 140.498 208.7C139.653 207.41 138.83 206.137 137.879 204.921L131.351 205.793L129.439 183.192C128.631 184.605 128.166 186.367 127.665 187.913C125.762 193.79 124.318 199.716 123.247 205.795L117.376 205.303L113.676 210.719L94.7508 208.902L95.7169 201.172L92.1445 200.164L102.142 154.146Z" fill="black"/>
<path d="M95.717 201.172L117.376 205.302L113.676 210.719L94.7509 208.902L95.717 201.172Z" fill="#B4B3B3"/>
<path d="M137.879 204.92L160.21 201.218L160.642 208.782L141.693 210.505C141.243 210.014 140.867 209.263 140.498 208.7C139.653 207.41 138.83 206.136 137.879 204.92Z" fill="#B4B3B3"/>
<path d="M57.6451 127.153L57.4517 127.055C56.4237 125.445 55.7824 123.254 55.2391 121.43C52.2447 111.379 52.5727 100.816 54.3573 90.5819C55.4659 84.2242 57.3873 78.1215 59.5409 72.052C60.0004 70.7572 60.5887 67.9733 61.7794 67.2026C62.4273 66.7831 63.3441 66.9076 64.0826 66.9154L69.3306 67.1815C70.3141 67.2522 71.4945 67.2067 72.4422 67.4801C72.785 67.5789 73.1351 67.9429 73.2883 68.2606C73.5424 68.7882 73.4518 69.3129 73.24 69.8313C72.9613 70.1324 72.7043 70.237 72.3245 70.3872L72.1773 70.4438C73.2171 71.0009 73.9274 71.513 74.2755 72.7044C74.5789 73.7437 74.4926 74.9732 73.9068 75.9071C73.5683 76.4468 73.0868 76.7215 72.4746 76.8573C72.0239 76.9574 71.5858 77.0759 71.1884 76.8319L71.2555 76.5122C71.3159 76.1583 71.496 75.2758 71.4185 74.9553C71.3795 74.7931 71.1373 74.4892 71.0462 74.3396L69.9265 72.6441C70.4537 73.9502 70.8729 75.0622 70.7228 76.4906L70.7039 76.6536C69.9121 78.2842 69.1382 79.7197 67.3184 80.3839C66.0203 80.8578 64.3381 80.7016 63.0426 80.2816L62.9797 80.3708C63.3051 80.5985 64.3666 80.8726 64.5165 81.0769C64.6354 81.2386 64.7388 81.7152 64.8118 81.9202L65.6149 84.0745L69.1344 93.1844C69.8377 95.0323 70.4682 96.957 71.2829 98.7559C72.403 97.3043 73.532 95.8533 74.8835 94.6065C78.1432 91.599 82.6409 89.5512 87.0446 88.9835C89.7339 88.6366 92.9639 88.8066 95.5078 89.8047C95.7442 89.8972 95.6383 89.8635 95.8939 89.9191C97.5243 89.0574 99.1463 88.1572 100.843 87.4316C105.839 85.2951 111.476 83.875 116.871 83.2865L116.953 83.6338C116.538 83.875 115.905 83.8504 115.43 83.9372L110.983 84.7828C111.531 85.8045 112.32 86.4393 113.246 87.097C115.272 88.536 117.606 89.5889 119.981 90.3032C126.279 92.1967 133.991 91.7283 139.814 88.5315C141.21 87.7651 142.435 86.7472 143.539 85.6098L144.367 84.8965C143.435 84.7443 139.293 84.1726 138.693 83.7908L138.763 83.5242C140.638 83.6152 142.511 84.0164 144.342 84.4146C148.015 85.2131 151.614 86.3 155.068 87.796C156.023 88.21 156.946 88.7002 157.866 89.1869C158.134 89.3286 158.669 89.7114 158.947 89.7627C159.371 89.8412 160.464 89.5351 160.943 89.4712C162.141 89.3112 163.339 89.3057 164.545 89.3089C172.241 89.3293 179.015 92.8456 184.155 98.4777L187.645 102.894L187.792 103.075C187.346 105.278 186.185 107.034 184.77 108.742C182.265 111.767 179.161 114.324 175.894 116.485C173.462 118.093 170.843 119.42 168.219 120.687C166.78 121.382 165.333 122.143 163.811 122.636C162.515 121.775 161.292 120.726 160.18 119.641C159.289 121.868 158.26 123.965 156.937 125.971C156.54 126.573 156.133 127.17 155.672 127.725C155.539 127.885 155.028 128.355 154.976 128.525C154.85 128.94 154.932 129.786 154.916 130.247L154.728 135.662L154.39 143.716C154.315 145.457 154.175 147.216 154.227 148.959C154.233 149.175 154.158 149.295 154.119 149.501L154.076 149.897L153.905 151.078L153.332 155.461L125.149 155.439C117.557 155.37 109.639 155.442 102.142 154.146C102.308 153.444 102.21 152.512 102.232 151.772C102.461 144.13 101.147 136.283 99.6559 128.813C99.512 128.093 99.014 127.654 98.5761 127.084C96.8421 124.824 95.4223 122.018 94.4562 119.341C84.7628 126.389 73.0929 129.629 61.178 127.757L57.6451 127.153Z" fill="white"/>
<path d="M160.18 119.641L162.686 112.978C163.281 111.178 164.079 109.146 164.302 107.267C164.475 105.799 164.117 104.142 163.773 102.719C163.114 99.9876 162.24 97.3735 160.978 94.8578L161.074 94.7415C163.221 98.2065 164.719 101.976 165.054 106.065L165.162 106.143C165.926 106.475 167.497 106.58 168.341 106.698C175.099 107.641 181.79 106.364 187.646 102.894L187.793 103.075C187.346 105.278 186.185 107.034 184.771 108.742C182.265 111.767 179.161 114.324 175.894 116.485C173.462 118.093 170.843 119.42 168.22 120.687C166.78 121.382 165.333 122.143 163.812 122.636C162.515 121.775 161.292 120.726 160.18 119.641Z" fill="#B4B3B3"/>
<path d="M57.6451 127.152C59.0091 126.939 60.3925 126.571 61.6936 126.108C66.4024 124.435 70.3724 121.2 72.535 116.634C75.012 111.404 73.9496 106.126 72.0893 100.921C72.9254 102.578 74.1938 103.594 75.7623 104.546C80.2311 107.26 85.1393 107.093 90.0576 105.919C90.0815 102.352 91.3617 98.8776 93.01 95.7589L93.1611 95.8007C92.3263 97.7731 91.8306 99.694 91.3939 101.781C91.0878 103.243 90.6723 104.877 90.6975 106.37C90.7163 107.498 91.0529 108.696 91.3235 109.788C92.1435 113.097 93.3805 116.128 94.4562 119.341C84.7628 126.389 73.0929 129.629 61.178 127.757L57.6451 127.152Z" fill="#B4B3B3"/>
<defs>
<linearGradient id="paint0_linear_13_643" x1="204.43" y1="86.6881" x2="200.231" y2="84.6944" gradientUnits="userSpaceOnUse">
<stop stop-color="#CAC7C7"/>
<stop offset="1" stop-color="white"/>
</linearGradient>
</defs>
</svg>
